<svg id="_0177_coding_1" xmlns="http://www.w3.org/2000/svg" xmlns:xlink="http://www.w3.org/1999/xlink" viewBox="0 0 500 500" data-imageid="coding-1-37" class="illustrations_image" style="width:162px">
  <defs>
    <linearGradient id="linear-gradient-coding-1-37" x1="264.57" y1="2538.53" x2="266.58" y2="2475.27" gradientTransform="matrix(1 0 0 -1 -31 2871.49)" gradientUnits="userSpaceOnUse">
      <stop offset="0" stop-color="#231f20" stop-opacity="0"/>
      <stop offset="1" stop-color="#231f20"/>
    </linearGradient>
    <linearGradient id="linear-gradient-2-coding-1-37" x1="203.42" y1="2574.44" x2="221.4" y2="2520.48" xlink:href="#linear-gradient-coding-1-37"/>
    <linearGradient id="linear-gradient-3-coding-1-37" x1="203.42" y1="2565.35" x2="221.4" y2="2511.38" xlink:href="#linear-gradient-coding-1-37"/>
    <linearGradient id="linear-gradient-4-coding-1-37" x1="203.42" y1="2556.25" x2="221.4" y2="2502.29" xlink:href="#linear-gradient-coding-1-37"/>
    <linearGradient id="linear-gradient-5-coding-1-37" x1="203.42" y1="2547.16" x2="221.4" y2="2493.19" xlink:href="#linear-gradient-coding-1-37"/>
    <linearGradient id="linear-gradient-6-coding-1-37" x1="215.14" y1="2574.44" x2="233.13" y2="2520.48" xlink:href="#linear-gradient-coding-1-37"/>
    <linearGradient id="linear-gradient-7-coding-1-37" x1="215.14" y1="2565.34" x2="233.13" y2="2511.38" xlink:href="#linear-gradient-coding-1-37"/>
    <linearGradient id="linear-gradient-8-coding-1-37" x1="215.14" y1="2556.25" x2="233.13" y2="2502.29" xlink:href="#linear-gradient-coding-1-37"/>
    <linearGradient id="linear-gradient-9-coding-1-37" x1="215.13" y1="2547.16" x2="233.13" y2="2493.19" xlink:href="#linear-gradient-coding-1-37"/>
    <linearGradient id="linear-gradient-10-coding-1-37" x1="226.87" y1="2574.44" x2="244.85" y2="2520.48" xlink:href="#linear-gradient-coding-1-37"/>
    <linearGradient id="linear-gradient-11-coding-1-37" x1="226.87" y1="2565.35" x2="244.85" y2="2511.38" xlink:href="#linear-gradient-coding-1-37"/>
    <linearGradient id="linear-gradient-12-coding-1-37" x1="226.87" y1="2556.25" x2="244.85" y2="2502.29" xlink:href="#linear-gradient-coding-1-37"/>
    <linearGradient id="linear-gradient-13-coding-1-37" x1="226.86" y1="2547.16" x2="244.85" y2="2493.19" xlink:href="#linear-gradient-coding-1-37"/>
    <linearGradient id="linear-gradient-14-coding-1-37" x1="238.58" y1="2574.44" x2="256.58" y2="2520.48" xlink:href="#linear-gradient-coding-1-37"/>
    <linearGradient id="linear-gradient-15-coding-1-37" x1="238.58" y1="2565.34" x2="256.58" y2="2511.38" xlink:href="#linear-gradient-coding-1-37"/>
    <linearGradient id="linear-gradient-16-coding-1-37" x1="238.58" y1="2556.25" x2="256.58" y2="2502.29" xlink:href="#linear-gradient-coding-1-37"/>
    <linearGradient id="linear-gradient-17-coding-1-37" x1="250.31" y1="2574.44" x2="268.3" y2="2520.48" xlink:href="#linear-gradient-coding-1-37"/>
    <linearGradient id="linear-gradient-18-coding-1-37" x1="250.31" y1="2565.35" x2="268.3" y2="2511.38" xlink:href="#linear-gradient-coding-1-37"/>
    <linearGradient id="linear-gradient-19-coding-1-37" x1="250.31" y1="2556.25" x2="268.3" y2="2502.29" xlink:href="#linear-gradient-coding-1-37"/>
    <linearGradient id="linear-gradient-20-coding-1-37" x1="262.03" y1="2574.44" x2="280.02" y2="2520.48" xlink:href="#linear-gradient-coding-1-37"/>
    <linearGradient id="linear-gradient-21-coding-1-37" x1="262.03" y1="2565.34" x2="280.02" y2="2511.38" xlink:href="#linear-gradient-coding-1-37"/>
    <linearGradient id="linear-gradient-22-coding-1-37" x1="262.03" y1="2556.25" x2="280.02" y2="2502.29" xlink:href="#linear-gradient-coding-1-37"/>
    <linearGradient id="linear-gradient-23-coding-1-37" x1="273.76" y1="2574.44" x2="291.74" y2="2520.48" xlink:href="#linear-gradient-coding-1-37"/>
    <linearGradient id="linear-gradient-24-coding-1-37" x1="273.76" y1="2565.35" x2="291.74" y2="2511.38" xlink:href="#linear-gradient-coding-1-37"/>
    <linearGradient id="linear-gradient-25-coding-1-37" x1="273.76" y1="2556.25" x2="291.74" y2="2502.29" xlink:href="#linear-gradient-coding-1-37"/>
    <linearGradient id="linear-gradient-26-coding-1-37" x1="285.47" y1="2574.44" x2="303.47" y2="2520.48" xlink:href="#linear-gradient-coding-1-37"/>
    <linearGradient id="linear-gradient-27-coding-1-37" x1="285.47" y1="2565.34" x2="303.47" y2="2511.38" xlink:href="#linear-gradient-coding-1-37"/>
    <linearGradient id="linear-gradient-28-coding-1-37" x1="285.47" y1="2556.25" x2="303.47" y2="2502.29" xlink:href="#linear-gradient-coding-1-37"/>
    <linearGradient id="linear-gradient-29-coding-1-37" x1="297.2" y1="2574.44" x2="315.18" y2="2520.47" xlink:href="#linear-gradient-coding-1-37"/>
    <linearGradient id="linear-gradient-30-coding-1-37" x1="297.2" y1="2565.34" x2="315.18" y2="2511.38" xlink:href="#linear-gradient-coding-1-37"/>
    <linearGradient id="linear-gradient-31-coding-1-37" x1="297.2" y1="2556.25" x2="315.18" y2="2502.29" xlink:href="#linear-gradient-coding-1-37"/>
    <linearGradient id="linear-gradient-32-coding-1-37" x1="297.19" y1="2547.15" x2="315.18" y2="2493.19" xlink:href="#linear-gradient-coding-1-37"/>
    <linearGradient id="linear-gradient-33-coding-1-37" x1="308.92" y1="2574.44" x2="326.91" y2="2520.48" xlink:href="#linear-gradient-coding-1-37"/>
    <linearGradient id="linear-gradient-34-coding-1-37" x1="308.92" y1="2565.35" x2="326.91" y2="2511.38" xlink:href="#linear-gradient-coding-1-37"/>
    <linearGradient id="linear-gradient-35-coding-1-37" x1="308.92" y1="2556.25" x2="326.91" y2="2502.29" xlink:href="#linear-gradient-coding-1-37"/>
    <linearGradient id="linear-gradient-36-coding-1-37" x1="308.92" y1="2547.16" x2="326.9" y2="2493.19" xlink:href="#linear-gradient-coding-1-37"/>
    <linearGradient id="linear-gradient-37-coding-1-37" x1="320.64" y1="2574.44" x2="338.63" y2="2520.48" xlink:href="#linear-gradient-coding-1-37"/>
    <linearGradient id="linear-gradient-38-coding-1-37" x1="320.64" y1="2565.34" x2="338.63" y2="2511.38" xlink:href="#linear-gradient-coding-1-37"/>
    <linearGradient id="linear-gradient-39-coding-1-37" x1="320.64" y1="2556.25" x2="338.63" y2="2502.29" xlink:href="#linear-gradient-coding-1-37"/>
    <linearGradient id="linear-gradient-40-coding-1-37" x1="320.64" y1="2547.16" x2="338.63" y2="2493.19" xlink:href="#linear-gradient-coding-1-37"/>
    <linearGradient id="linear-gradient-41-coding-1-37" x1="258.65" y1="2554.23" x2="258.18" y2="2472.72" xlink:href="#linear-gradient-coding-1-37"/>
    <linearGradient id="linear-gradient-42-coding-1-37" x1="291.77" y1="-753.45" x2="288.24" y2="-564.55" gradientTransform="translate(-119.24 791.63)" gradientUnits="userSpaceOnUse">
      <stop offset="0" stop-color="#fff" stop-opacity="0"/>
      <stop offset=".99" stop-color="#fff"/>
    </linearGradient>
    <linearGradient id="linear-gradient-43-coding-1-37" x1="282.41" y1="-743.5" x2="279.14" y2="-568.85" xlink:href="#linear-gradient-42-coding-1-37"/>
    <linearGradient id="linear-gradient-44-coding-1-37" x1="377.21" y1="-744.08" x2="373.88" y2="-566.32" xlink:href="#linear-gradient-42-coding-1-37"/>
    <linearGradient id="linear-gradient-45-coding-1-37" x1="311.25" y1="-734.17" x2="308.18" y2="-571.26" xlink:href="#linear-gradient-42-coding-1-37"/>
    <linearGradient id="linear-gradient-46-coding-1-37" x1="333.16" y1="-725.76" x2="330.29" y2="-573.04" xlink:href="#linear-gradient-42-coding-1-37"/>
    <linearGradient id="linear-gradient-47-coding-1-37" x1="390.41" y1="-724.38" x2="387.57" y2="-572.17" xlink:href="#linear-gradient-42-coding-1-37"/>
    <linearGradient id="linear-gradient-48-coding-1-37" x1="327.66" y1="-717.12" x2="325" y2="-574.86" xlink:href="#linear-gradient-42-coding-1-37"/>
    <linearGradient id="linear-gradient-49-coding-1-37" x1="398.12" y1="-718.81" x2="395.4" y2="-573.31" xlink:href="#linear-gradient-42-coding-1-37"/>
    <linearGradient id="linear-gradient-50-coding-1-37" x1="303.42" y1="-673.73" x2="300.97" y2="-542.74" xlink:href="#linear-gradient-42-coding-1-37"/>
    <linearGradient id="linear-gradient-51-coding-1-37" x1="295.31" y1="-667.18" x2="293.05" y2="-545.91" xlink:href="#linear-gradient-42-coding-1-37"/>
    <linearGradient id="linear-gradient-52-coding-1-37" x1="373.07" y1="-671.49" x2="370.65" y2="-542.69" xlink:href="#linear-gradient-42-coding-1-37"/>
    <linearGradient id="linear-gradient-53-coding-1-37" x1="318.73" y1="-662.84" x2="316.56" y2="-547.18" xlink:href="#linear-gradient-42-coding-1-37"/>
    <linearGradient id="linear-gradient-54-coding-1-37" x1="336.73" y1="-658.68" x2="334.65" y2="-548.27" xlink:href="#linear-gradient-42-coding-1-37"/>
    <linearGradient id="linear-gradient-55-coding-1-37" x1="384.25" y1="-656.89" x2="382.21" y2="-547.82" xlink:href="#linear-gradient-42-coding-1-37"/>
    <linearGradient id="linear-gradient-56-coding-1-37" x1="332" y1="-653.11" x2="330.07" y2="-549.71" xlink:href="#linear-gradient-42-coding-1-37"/>
    <linearGradient id="linear-gradient-57-coding-1-37" x1="390.9" y1="-656.4" x2="388.88" y2="-548.28" xlink:href="#linear-gradient-42-coding-1-37"/>
    <linearGradient id="linear-gradient-58-coding-1-37" x1="311.48" y1="-623.18" x2="309.66" y2="-525.92" xlink:href="#linear-gradient-42-coding-1-37"/>
    <linearGradient id="linear-gradient-59-coding-1-37" x1="304.36" y1="-618.33" x2="302.68" y2="-528.48" xlink:href="#linear-gradient-42-coding-1-37"/>
    <linearGradient id="linear-gradient-60-coding-1-37" x1="370.26" y1="-624.25" x2="368.39" y2="-525.09" xlink:href="#linear-gradient-42-coding-1-37"/>
    <linearGradient id="linear-gradient-61-coding-1-37" x1="324.06" y1="-616.39" x2="322.41" y2="-529.21" xlink:href="#linear-gradient-42-coding-1-37"/>
    <linearGradient id="linear-gradient-62-coding-1-37" x1="339.32" y1="-614.37" x2="337.73" y2="-529.95" xlink:href="#linear-gradient-42-coding-1-37"/>
    <linearGradient id="linear-gradient-63-coding-1-37" x1="379.93" y1="-612.44" x2="378.39" y2="-529.73" xlink:href="#linear-gradient-42-coding-1-37"/>
    <linearGradient id="linear-gradient-64-coding-1-37" x1="335.18" y1="-610.41" x2="333.7" y2="-531.17" xlink:href="#linear-gradient-42-coding-1-37"/>
    <linearGradient id="linear-gradient-65-coding-1-37" x1="385.78" y1="-614.38" x2="384.2" y2="-529.87" xlink:href="#linear-gradient-42-coding-1-37"/>
    <style>
      .cls-67_coding-1-37,.cls-69_coding-1-37,.cls-70_coding-1-37,.cls-71_coding-1-37{stroke-width:0}.cls-72_coding-1-37{opacity:.52}.cls-67_coding-1-37{isolation:isolate}.cls-71_coding-1-37{fill:#68e1fd}.cls-67_coding-1-37{opacity:.27;fill:#fff}.cls-69_coding-1-37{fill:#fff}.cls-70_coding-1-37{fill:#ffb4a3}
    </style>
  </defs>
  <path id="background_coding-1-37" class="targetColor" d="M381.42 351.48c-12.21 4.69-25.11 7.55-37.08 12.81-19.54 8.63-35.74 23.3-54.22 33.99a134.65 134.65 0 0 1-25.15 11.33c-8.64 2.87-17.54 4.9-26.57 6.06a174.169 174.169 0 0 1-36.16.88c-11.61-.89-23.13-2.65-34.48-5.26a357.462 357.462 0 0 1-50.19-15.54c-50.66-19.52-83.74-120.68-61.66-168.5 9.72-21.09 28.74-36.22 42.45-54.96 25.41-34.79 33.06-82.56 66.41-109.85 21.61-17.67 51.02-23.51 78.83-21.33 27.81 2.18 54.47 11.74 80.4 22.05 12.51 4.96 25.19 10.28 35.31 19.19 17.84 15.66 25.05 39.74 36.33 60.63 18.44 34.19 49.62 62.91 55.63 101.21 7.11 45.6-26.79 90.72-69.85 107.29Z" style="fill:#bd93f9;opacity:.24;isolation:isolate;stroke-width:0"/>
  <g id="keyboard_coding-1-37">
    <path class="cls-71_coding-1-37 targetColor" style="fill:#bd93f9" d="M165.82 297.18H300.7v52.1H165.82z"/>
    <path style="stroke-width:0;fill:url(#linear-gradient)" d="M165.82 297.18H300.7v52.1H165.82z"/>
    <path class="cls-71_coding-1-37 targetColor" style="fill:#bd93f9" d="M165.82 293.95H300.7v52.1H165.82z"/>
    <path style="fill:url(#linear-gradient-2-coding-1-37);stroke-width:0" d="M171.1 302.61h8.89v7.68h-8.89z"/>
    <path style="fill:url(#linear-gradient-3-coding-1-37);stroke-width:0" d="M171.1 311.7h8.89v7.68h-8.89z"/>
    <path style="fill:url(#linear-gradient-4-coding-1-37);stroke-width:0" d="M171.1 320.79h8.89v7.68h-8.89z"/>
    <path style="fill:url(#linear-gradient-5-coding-1-37);stroke-width:0" d="M171.1 329.9h8.89v7.68h-8.89z"/>
    <path style="fill:url(#linear-gradient-6-coding-1-37);stroke-width:0" d="M182.82 302.61h8.89v7.68h-8.89z"/>
    <path style="fill:url(#linear-gradient-7-coding-1-37);stroke-width:0" d="M182.82 311.7h8.89v7.68h-8.89z"/>
    <path style="fill:url(#linear-gradient-8-coding-1-37);stroke-width:0" d="M182.82 320.79h8.89v7.68h-8.89z"/>
    <path style="fill:url(#linear-gradient-9-coding-1-37);stroke-width:0" d="M182.82 329.9h8.89v7.68h-8.89z"/>
    <path style="fill:url(#linear-gradient-10-coding-1-37);stroke-width:0" d="M194.55 302.61h8.89v7.68h-8.89z"/>
    <path style="fill:url(#linear-gradient-11-coding-1-37);stroke-width:0" d="M194.55 311.7h8.89v7.68h-8.89z"/>
    <path style="fill:url(#linear-gradient-12-coding-1-37);stroke-width:0" d="M194.55 320.79h8.89v7.68h-8.89z"/>
    <path style="fill:url(#linear-gradient-13-coding-1-37);stroke-width:0" d="M194.55 329.9h8.89v7.68h-8.89z"/>
    <path style="fill:url(#linear-gradient-14-coding-1-37);stroke-width:0" d="M206.27 302.61h8.89v7.68h-8.89z"/>
    <path style="fill:url(#linear-gradient-15-coding-1-37);stroke-width:0" d="M206.27 311.7h8.89v7.68h-8.89z"/>
    <path style="fill:url(#linear-gradient-16-coding-1-37);stroke-width:0" d="M206.27 320.79h8.89v7.68h-8.89z"/>
    <path style="fill:url(#linear-gradient-17-coding-1-37);stroke-width:0" d="M218 302.61h8.89v7.68H218z"/>
    <path style="fill:url(#linear-gradient-18-coding-1-37);stroke-width:0" d="M218 311.7h8.89v7.68H218z"/>
    <path style="fill:url(#linear-gradient-19-coding-1-37);stroke-width:0" d="M218 320.79h8.89v7.68H218z"/>
    <path style="fill:url(#linear-gradient-20-coding-1-37);stroke-width:0" d="M229.72 302.61h8.89v7.68h-8.89z"/>
    <path style="fill:url(#linear-gradient-21-coding-1-37);stroke-width:0" d="M229.72 311.7h8.89v7.68h-8.89z"/>
    <path style="fill:url(#linear-gradient-22-coding-1-37);stroke-width:0" d="M229.72 320.79h8.89v7.68h-8.89z"/>
    <path style="fill:url(#linear-gradient-23-coding-1-37);stroke-width:0" d="M241.44 302.61h8.89v7.68h-8.89z"/>
    <path style="fill:url(#linear-gradient-24-coding-1-37);stroke-width:0" d="M241.44 311.7h8.89v7.68h-8.89z"/>
    <path style="fill:url(#linear-gradient-25-coding-1-37);stroke-width:0" d="M241.44 320.79h8.89v7.68h-8.89z"/>
    <path style="fill:url(#linear-gradient-26-coding-1-37);stroke-width:0" d="M253.16 302.61h8.89v7.68h-8.89z"/>
    <path style="fill:url(#linear-gradient-27-coding-1-37);stroke-width:0" d="M253.16 311.7h8.89v7.68h-8.89z"/>
    <path style="fill:url(#linear-gradient-28-coding-1-37);stroke-width:0" d="M253.16 320.79h8.89v7.68h-8.89z"/>
    <path style="fill:url(#linear-gradient-29-coding-1-37);stroke-width:0" d="M264.88 302.61h8.89v7.68h-8.89z"/>
    <path style="fill:url(#linear-gradient-30-coding-1-37);stroke-width:0" d="M264.88 311.7h8.89v7.68h-8.89z"/>
    <path style="fill:url(#linear-gradient-31-coding-1-37);stroke-width:0" d="M264.88 320.79h8.89v7.68h-8.89z"/>
    <path style="fill:url(#linear-gradient-32-coding-1-37);stroke-width:0" d="M264.88 329.9h8.89v7.68h-8.89z"/>
    <path style="fill:url(#linear-gradient-33-coding-1-37);stroke-width:0" d="M276.61 302.61h8.89v7.68h-8.89z"/>
    <path style="fill:url(#linear-gradient-34-coding-1-37);stroke-width:0" d="M276.61 311.7h8.89v7.68h-8.89z"/>
    <path style="fill:url(#linear-gradient-35-coding-1-37);stroke-width:0" d="M276.61 320.79h8.89v7.68h-8.89z"/>
    <path style="fill:url(#linear-gradient-36-coding-1-37);stroke-width:0" d="M276.61 329.9h8.89v7.68h-8.89z"/>
    <path style="fill:url(#linear-gradient-37-coding-1-37);stroke-width:0" d="M288.33 302.61h8.89v7.68h-8.89z"/>
    <path style="fill:url(#linear-gradient-38-coding-1-37);stroke-width:0" d="M288.33 311.7h8.89v7.68h-8.89z"/>
    <path style="fill:url(#linear-gradient-39-coding-1-37);stroke-width:0" d="M288.33 320.79h8.89v7.68h-8.89z"/>
    <path style="fill:url(#linear-gradient-40-coding-1-37);stroke-width:0" d="M288.33 329.9h8.89v7.68h-8.89z"/>
    <path style="fill:url(#linear-gradient-41-coding-1-37);stroke-width:0" d="M192.8 330.4h69.52v7.53H192.8z"/>
  </g>
  <g id="screen_coding-1-37">
    <path class="targetColor" style="fill:#bd93f9;isolation:isolate;opacity:.52;stroke-width:0" d="M335.89 267.85H112.76L52.4 142h358.95l-75.46 125.85z"/>
    <path class="cls-67_coding-1-37" d="M162.87 255.03H75.16c-5.1 0-10.56-2.85-12.21-6.37l-15.08-32.29c-1.64-3.52 1.16-6.37 6.26-6.37h87.72c5.09 0 10.55 2.85 12.2 6.37l15.08 32.26c1.65 3.52-1.16 6.4-6.26 6.4Z"/>
    <path class="cls-69_coding-1-37" d="M157.21 263.09H69.49c-5.09 0-10.56-2.85-12.2-6.37l-15.08-32.26c-1.62-3.52 1.16-6.4 6.26-6.4h87.71c5.1 0 10.56 2.86 12.21 6.38l15.12 32.28c1.6 3.52-1.2 6.37-6.29 6.37Z"/>
    <path class="cls-67_coding-1-37" d="M319.51 226.61h87.72c5.1 0 10.56-2.86 12.21-6.37l15.07-32.27c1.65-3.51-1.16-6.37-6.25-6.37h-87.72c-5.09 0-10.56 2.86-12.21 6.37l-15.11 32.27c-1.61 3.51 1.19 6.37 6.28 6.37Z"/>
    <path class="cls-69_coding-1-37" d="M319.51 237.93h87.72c5.1 0 10.56-2.86 12.21-6.38l15.07-32.26c1.65-3.51-1.16-6.37-6.25-6.37h-87.72c-5.09 0-10.56 2.86-12.21 6.37l-15.11 32.26c-1.61 3.52 1.19 6.38 6.28 6.38Z"/>
    <path style="fill:url(#linear-gradient-42-coding-1-37);stroke-width:0" d="M136.82 165.94h65.82l.74 4.72h-64.39l-2.17-4.72z"/>
    <path style="fill:url(#linear-gradient-43-coding-1-37);stroke-width:0" d="M140.94 174.9h38.51l1.13 4.08h-37.76l-1.88-4.08z"/>
    <path style="fill:url(#linear-gradient-44-coding-1-37);stroke-width:0" d="M194.99 174.9h121.19l-1.58 4.1H195.81l-.82-4.1z"/>
    <path style="fill:url(#linear-gradient-45-coding-1-37);stroke-width:0" d="M163.97 183.16h50.85l.42 3.96h-49.83l-1.44-3.96z"/>
    <path style="fill:url(#linear-gradient-46-coding-1-37);stroke-width:0" d="M182.44 190.76h58.26l-.09 3.72h-57.13l-1.04-3.72z"/>
    <path style="fill:url(#linear-gradient-47-coding-1-37);stroke-width:0" d="M244.5 190.76h48.84l-1.22 4.12h-47.79l.17-4.12z"/>
    <path style="fill:url(#linear-gradient-48-coding-1-37);stroke-width:0" d="M184.34 197.82h43.33l.16 3.24h-42.58l-.91-3.24z"/>
    <path style="fill:url(#linear-gradient-49-coding-1-37);stroke-width:0" d="M231.83 197.82h89.42l-1.65 3.57h-87.68l-.09-3.57z"/>
    <path style="fill:url(#linear-gradient-50-coding-1-37);stroke-width:0" d="M155.52 206.57h53.46l.49 3.12h-52.5l-1.45-3.12z"/>
    <path style="fill:url(#linear-gradient-51-coding-1-37);stroke-width:0" d="M158.27 212.52h31.51l.76 2.74h-31.01l-1.26-2.74z"/>
    <path style="fill:url(#linear-gradient-52-coding-1-37);stroke-width:0" d="M202.5 212.52h99.19l-1.06 2.76h-97.58l-.55-2.76z"/>
    <path style="fill:url(#linear-gradient-53-coding-1-37);stroke-width:0" d="M176.68 218.08h41.92l.29 2.71h-41.23l-.98-2.71z"/>
    <path style="fill:url(#linear-gradient-54-coding-1-37);stroke-width:0" d="M191.6 223.3h48.36l-.05 2.56h-47.58l-.73-2.56z"/>
    <path style="fill:url(#linear-gradient-55-coding-1-37);stroke-width:0" d="M243.12 223.3h40.53l-.84 2.84H243l.12-2.84z"/>
    <path style="fill:url(#linear-gradient-56-coding-1-37);stroke-width:0" d="M192.92 228.18h36.19l.11 2.28h-35.67l-.63-2.28z"/>
    <path style="fill:url(#linear-gradient-57-coding-1-37);stroke-width:0" d="M232.58 228.18h74.68l-1.15 2.51h-73.46l-.07-2.51z"/>
    <path style="fill:url(#linear-gradient-58-coding-1-37);stroke-width:0" d="M168.31 234.34h45l.34 2.23h-44.31l-1.03-2.23z"/>
    <path style="fill:url(#linear-gradient-59-coding-1-37);stroke-width:0" d="M170.26 238.58h26.68l.55 1.97h-26.31l-.92-1.97z"/>
    <path style="fill:url(#linear-gradient-60-coding-1-37);stroke-width:0" d="M207.7 238.58h83.95l-.76 1.98H208.1l-.4-1.98z"/>
    <path style="fill:url(#linear-gradient-61-coding-1-37);stroke-width:0" d="M185.6 242.58h35.65l.21 1.97h-35.15l-.71-1.97z"/>
    <path style="fill:url(#linear-gradient-62-coding-1-37);stroke-width:0" d="M198.11 246.37h41.34l-.05 1.88h-40.76l-.53-1.88z"/>
    <path style="fill:url(#linear-gradient-63-coding-1-37);stroke-width:0" d="M242.14 246.37h34.64l-.62 2.08h-34.11l.09-2.08z"/>
    <path style="fill:url(#linear-gradient-64-coding-1-37);stroke-width:0" d="M199.06 249.97h31.07l.08 1.67h-30.68l-.47-1.67z"/>
    <path style="fill:url(#linear-gradient-65-coding-1-37);stroke-width:0" d="M233.12 249.97h64.11l-.85 1.84h-63.22l-.04-1.84z"/>
    <g class="cls-72_coding-1-37">
      <path class="cls-71_coding-1-37 targetColor" style="fill:#bd93f9" d="M50.23 226.77h33.79l.38 1.79H51.35l-1.12-1.79zM52.35 230.17h19.77l.58 1.55H53.32l-.97-1.55zM80.09 230.17h62.23l-.82 1.56H80.52l-.43-1.56zM64.17 233.31h26.11l.22 1.51H64.91l-.74-1.51zM73.65 236.21h29.92l-.05 1.4H74.19l-.54-1.4zM105.52 236.21h25.07l-.63 1.56h-24.54l.1-1.56zM74.63 238.89h22.25l.08 1.23H75.1l-.47-1.23zM99.01 238.89h45.9l-.84 1.35H99.06l-.05-1.35zM59.84 242.21h27.43l.26 1.2H60.57l-.73-1.2zM61.24 244.48h16.18l.39 1.04H61.9l-.66-1.04zM83.96 244.48h50.92l-.55 1.04h-50.1l-.27-1.04zM70.69 246.58h21.53l.15 1.04H71.2l-.51-1.04zM78.37 248.57h24.82l-.03.97H78.73l-.36-.97zM104.81 248.57h20.81l-.44 1.08h-20.44l.07-1.08zM79.03 250.43h18.59l.05.86H79.36l-.33-.86zM99.4 250.43h38.34l-.6.95H99.43l-.03-.95zM66.41 252.77H89.5l.19.85H66.92l-.51-.85zM67.4 254.38h13.7l.28.75h-13.5l-.48-.75zM86.63 254.38h43.09l-.39.75h-42.5l-.2-.75zM75.28 255.9h18.3l.11.75H75.64l-.36-.75zM81.7 257.34h21.22l-.03.71H81.97l-.27-.71zM104.31 257.34h17.78l-.32.8h-17.51l.05-.8zM82.19 258.71h15.95l.04.64H82.43l-.24-.64zM99.68 258.71h32.91l-.44.7H99.69l-.01-.7z"/>
    </g>
    <g class="cls-72_coding-1-37">
      <path class="cls-71_coding-1-37 targetColor" style="fill:#bd93f9" d="M346.63 202.52h27.78l-.77 1.53h-27.17l.16-1.53zM346.33 205.44h16.25l-.46 1.33h-15.93l.14-1.33zM369.14 205.44h51.14l-1.61 1.34h-50.13l.6-1.34zM354.15 208.13h21.46l-.73 1.29h-21.02l.29-1.29zM360.21 210.61h24.59l-.89 1.21H359.8l.41-1.21zM386.4 210.61h20.61l-1.45 1.34h-20.17l1.01-1.34zM359.4 212.91h18.28l-.67 1.05h-17.97l.36-1.05zM379.44 212.91h37.74l-1.51 1.16h-37.01l.78-1.16zM345.24 215.75h22.55l-.5 1.03h-22.16l.11-1.03zM345.03 217.69h13.3l-.3.9h-13.09l.09-.9zM363.7 217.69h41.86l-1.08.9H363.3l.4-.9zM351.53 219.51h17.69l-.49.88h-17.4l.2-.88zM356.64 221.21h20.41l-.61.83h-20.09l.29-.83zM378.38 221.21h17.1l-1 .92h-16.81l.71-.92zM356.07 222.8h15.27l-.47.74h-15.04l.24-.74zM372.81 222.8h31.52l-1.06.82h-31l.54-.82zM344.28 224.8h19l-.37.73H344.2l.08-.73zM344.14 226.19h11.25l-.22.64h-11.1l.07-.64zM359.94 226.19h35.42l-.77.64h-34.94l.29-.64zM349.69 227.49h15.05l-.36.64h-14.84l.15-.64zM354.11 228.73h17.44l-.45.61h-17.2l.21-.61zM372.68 228.73h14.62l-.73.67h-14.39l.5-.67zM353.68 229.89h13.12l-.35.55H353.5l.18-.55zM368.05 229.89h27.06l-.77.61h-26.68l.39-.61z"/>
    </g>
  </g>
  <g id="hands_coding-1-37">
    <path class="cls-70_coding-1-37" d="M185.13 329.89c.24-1.03.92-2.31 1.96-1.98.55.18.81.78 1.02 1.31.56 1.47 2.77 3.48 3.31 4.96.1-3.7.24-13.05 2.46-18.4.29-.7 1.1-1.03 1.8-.74.45.19.76.6.83 1.08.86 6.08 1.42 15.92 1.77 13.91.45-2.54 1.85-22.94 5.67-20.61 1.2 3.62.35 17.64-.1 21.43 1.02-5.02 2.93-24.87 6.77-22.75 2.43 6.34-2.61 22.56-.3 28.94.43 1.17 1.34 2.43 2.6 2.34s1.91-1.42 1.99-2.62-.26-2.38-.17-3.58c0-.66.35-1.27.92-1.6 1.11-.48 2.05.92 2.37 2.12 1.5 5.59 1.4 11.49-.28 17.02-1.76 5.78-5.17 10.89-8.52 15.9-.44.74-1.01 1.4-1.68 1.93-.36.24-.75.42-1.16.55-2.89.96-5.92 1.39-8.96 1.28-13.1-.72-11.9-9.16-12.94-16.38-1.34-8.01-1.12-16.2.63-24.13Z"/>
    <path class="cls-69_coding-1-37" d="M185.31 371.09a5.48 5.48 0 0 1 2.68-2.77c.7-.22 1.44-.32 2.18-.3 6.09-.12 12.17.39 18.16 1.52.58.04 1.12.3 1.52.71.21.33.33.7.34 1.09.37 2.98.05 6.01-.92 8.85-.1.43-.35.81-.7 1.07-.39.17-.82.21-1.23.11-6.17-.7-12.37-1.04-18.58-1.02-6.25-.03-6.16-4.32-3.46-9.27Z"/>
    <path class="cls-71_coding-1-37 targetColor" d="M208.64 416.53c-12.08-.93-24.08-2.76-35.89-5.48a7.91 7.91 0 0 1-.23-3.65 76.748 76.748 0 0 1 9.24-26.04 4.57 4.57 0 0 1 1.85-2.04 4.36 4.36 0 0 1 2.01-.34c7.6-.18 15.2.41 22.68 1.75 1.12.05 2.17.55 2.92 1.38.4.69.59 1.49.55 2.29a119.4 119.4 0 0 1-3.12 32.14Z" style="fill:#bd93f9"/>
    <path class="cls-70_coding-1-37" d="M235.78 367.57c-.5-.92-.88-2.23 0-2.77.43-.23.94-.29 1.41-.16 1.72.28 3.36.95 4.79 1.95 2.21 1.54 4.62 4.01 7.1 2.9 2.14-.97 2.33-3.89 2.19-6.25-.47-7.89-.94-15.78-1.42-23.67 0-.79 0-1.75.68-2.13 1.04-.56 2.06.78 2.5 1.85l5.66 14.32c1.08-3.45-.18-15.29.35-20.54.08-.84.83-1.46 1.67-1.38.56.05 1.04.41 1.26.93 1.71 4.11 3.57 14.79 3.89 17.32.92 7.54 1.4.92 1.67-.34.67-3.14-.2-13.86 1.69-14.68 2.77.2 3.7 3.81 3.76 6.6.06 2.79-1.4 13.6 1.32 14.25 1.2-3.01 1.11-8.49 2.73-8.7 2.53 1.16.3 12.69-.51 15.36-2.4 8-.86 6.95-3.25 14.94-.46 2.01-1.35 3.9-2.59 5.54-1.58 1.6-3.58 2.71-5.78 3.19-13.34 3.72-23.35-8.08-29.13-18.54Z"/>
    <path class="cls-69_coding-1-37" d="M251.85 396.96c0 .71.3 1.38.82 1.85.32.17.67.27 1.04.3 5.44.65 10.96.24 16.25-1.21.56-.1 1.09-.36 1.52-.73.41-.48.65-1.07.7-1.69.52-3.58-1.07-7.08-2.62-10.34-.09-.24-.24-.44-.44-.59-.26-.1-.54-.12-.8-.05-2.59.43-5.19.73-7.81.92-1.9.13-5.03-.48-6.79.25-3.46 1.43-2.2 8.16-1.86 11.29Z"/>
    <path class="cls-71_coding-1-37 targetColor" d="M276.15 408.62c-9.02 2.99-18.3 5.11-27.72 6.32.12-3.7.23-7.52.55-11.23.26-3.16 3.39-9.39 7.24-9.39 3.85-1.66 8.19-1.78 12.37-1.89 1.47 0 3.11 0 4.22.97s1.32 2.36 1.55 3.7c.67 3.8 1.33 7.65 1.79 11.52Z" style="fill:#bd93f9"/>
  </g>
</svg>