<svg id="_0519_analytics_process" xmlns="http://www.w3.org/2000/svg" xmlns:xlink="http://www.w3.org/1999/xlink" viewBox="0 0 500 500" data-imageid="data-analysis-1-74" class="illustrations_image" style="width:162px">
  <defs>
    <linearGradient id="linear-gradient-data-analysis-1-74" x1="628.83" y1="3081.17" x2="612.56" y2="2861.31" gradientTransform="matrix(1 0 0 -1 -485.24 3328.5)" gradientUnits="userSpaceOnUse">
      <stop offset="0" stop-color="#231f20"/>
      <stop offset=".08" stop-color="#231f20" stop-opacity=".69"/>
      <stop offset=".21" stop-color="#231f20" stop-opacity=".32"/>
      <stop offset="1" stop-color="#231f20" stop-opacity="0"/>
    </linearGradient>
    <linearGradient id="linear-gradient-2-data-analysis-1-74" x1="827.84" y1="3084.7" x2="811.54" y2="2864.81" xlink:href="#linear-gradient-data-analysis-1-74"/>
    <linearGradient id="linear-gradient-3-data-analysis-1-74" x1="356.24" y1="186.19" x2="345.97" y2="161.92" gradientUnits="userSpaceOnUse">
      <stop offset="0" stop-color="#231f20" stop-opacity="0"/>
      <stop offset="1" stop-color="#231f20"/>
    </linearGradient>
    <linearGradient id="linear-gradient-4-data-analysis-1-74" x1="-1029.52" y1="2555.23" x2="-816.12" y2="2564.68" gradientTransform="scale(1 -1) rotate(-46.55 -3699.707 -158.339)" xlink:href="#linear-gradient-data-analysis-1-74"/>
    <linearGradient id="linear-gradient-5-data-analysis-1-74" x1="807.2" y1="3184.75" x2="808.64" y2="3230.33" gradientTransform="matrix(1 0 0 -1 -485.24 3328.5)" gradientUnits="userSpaceOnUse">
      <stop offset="0" stop-color="#fff"/>
      <stop offset="1" stop-color="#fff" stop-opacity="0"/>
    </linearGradient>
    <linearGradient id="linear-gradient-6-data-analysis-1-74" x1="817.85" y1="3198.17" x2="796.06" y2="3217.42" xlink:href="#linear-gradient-5-data-analysis-1-74"/>
    <linearGradient id="linear-gradient-7-data-analysis-1-74" x1="1068.82" y1="3527.57" x2="1211.39" y2="3257.72" gradientTransform="matrix(.92 0 0 -.98 -777.22 3608.21)" xlink:href="#linear-gradient-data-analysis-1-74"/>
    <linearGradient id="linear-gradient-8-data-analysis-1-74" x1="1097.22" y1="3542.58" x2="1239.79" y2="3272.73" gradientTransform="matrix(.92 0 0 -.98 -777.25 3608.07)" xlink:href="#linear-gradient-data-analysis-1-74"/>
    <linearGradient id="linear-gradient-9-data-analysis-1-74" x1="546.67" y1="2756.25" x2="579.94" y2="2680.1" gradientTransform="scale(1 -1) rotate(-1.72 -101320.54 11567.137)" xlink:href="#linear-gradient-data-analysis-1-74"/>
    <linearGradient id="linear-gradient-10-data-analysis-1-74" x1="-2429.65" y1="2549.18" x2="-2485.02" y2="2501.98" gradientTransform="scale(1 -1) rotate(-32.74 -5904.876 -3473.542)" gradientUnits="userSpaceOnUse">
      <stop offset="0"/>
      <stop offset=".13" stop-opacity=".69"/>
      <stop offset=".25" stop-opacity=".32"/>
      <stop offset="1" stop-opacity="0"/>
    </linearGradient>
    <linearGradient id="linear-gradient-11-data-analysis-1-74" x1="-902.57" y1="2502.82" x2="-819.16" y2="2579.93" gradientTransform="scale(1 -1) rotate(-32.74 -5127.973 -760.766)" xlink:href="#linear-gradient-10-data-analysis-1-74"/>
    <style>
      .cls-1_data-analysis-1-74{opacity:.31;stroke-width:0}.cls-15_data-analysis-1-74,.cls-16_data-analysis-1-74,.cls-17_data-analysis-1-74,.cls-18_data-analysis-1-74,.cls-19_data-analysis-1-74,.cls-20_data-analysis-1-74,.cls-21_data-analysis-1-74,.cls-22_data-analysis-1-74,.cls-2_data-analysis-1-74{stroke-width:0}.cls-1_data-analysis-1-74,.cls-2_data-analysis-1-74{isolation:isolate}.cls-1_data-analysis-1-74,.cls-22_data-analysis-1-74{fill:#68e1fd}.cls-2_data-analysis-1-74{fill:#020202;opacity:.1}.cls-15_data-analysis-1-74{fill:#473f47}.cls-16_data-analysis-1-74{fill:#231f20}.cls-17_data-analysis-1-74{fill:#de9f93}.cls-18_data-analysis-1-74{fill:#c14834}.cls-19_data-analysis-1-74{fill:#fff}.cls-20_data-analysis-1-74{fill:#ec9c7d}.cls-21_data-analysis-1-74{fill:#fdb9a9}
    </style>
  </defs>
  <g id="background_data-analysis-1-74">
    <path class="targetColor" d="M95.55 397.59a93.524 93.524 0 0 1-43.01-19.07c-14.71-11.56-30.69-27.14-30.2-46.47.52-20.52 8.18-40.26 16.65-58.73 11.18-24.94 26.79-51.24 22.66-79.02-4.08-27.34 1.42-61.01 16.04-84.54 23.12-37.05 63.58-46.04 104.05-46.91 26.73-.55 54.25 1.04 78.61 12.05 25.61 11.56 46.1 32.92 72.25 42.86 17.34 6.53 36.3 7.83 53.27 15.17 21.36 9.28 37.83 27.66 48.53 48.35 10.69 20.69 16.07 43.67 20.09 66.47 6.76 38.58-9.31 86.7-32.46 118.29-15.52 21.1-41.36 45.4-68.01 40.2-135.09-25.78-109.1 15.43-258.47-8.67Z" style="fill:#bd93f9;opacity:.18;isolation:isolate;stroke-width:0"/>
    <path d="m164.16 333.69 33.5 2.6c1.58-.01 3.14.38 4.54 1.13a6.103 6.103 0 0 1 1.94 6.85c-.92 2.38-2.51 4.45-4.57 5.95-12.17 9.8-29.25 10.29-44.97 10.2l-73.99-.4c-2.86.19-5.73-.24-8.41-1.24a6.944 6.944 0 0 1-4.31-6.73 8.83 8.83 0 0 1 4.68-5.78 59.312 59.312 0 0 1 21.33-6.85c11.27-2.02 22.56-3.95 33.87-5.78" style="fill:url(#linear-gradient);stroke-width:0"/>
    <path d="m363.21 330.19 33.5 2.57a9.03 9.03 0 0 1 4.54 1.16 6.11 6.11 0 0 1 1.94 6.82c-.93 2.39-2.52 4.45-4.6 5.95-12.14 9.94-29.22 10.32-44.91 10.2l-74.02-.43c-2.86.17-5.72-.25-8.41-1.24a6.928 6.928 0 0 1-4.39-6.76 8.674 8.674 0 0 1 4.68-5.78c6.65-3.6 13.93-5.91 21.44-6.79 11.27-2.02 22.56-3.95 33.87-5.78" style="fill:url(#linear-gradient-2-data-analysis-1-74);stroke-width:0"/>
  </g>
  <g id="cloud_data-analysis-1-74">
    <path class="cls-1_data-analysis-1-74 targetColor" d="M417.92 196.78c0 7.59-6.14 13.74-13.73 13.76h-35.35c-7.6 0-13.76-6.16-13.76-13.76s6.16-13.76 13.76-13.76h5.09c-.03-.38-.03-.75 0-1.13-.12-6.98 5.44-12.73 12.41-12.85 6.98-.12 12.73 5.44 12.85 12.41v1.56h5.06c7.6 0 13.76 6.16 13.76 13.76h-.09Z" style="fill:#bd93f9"/>
    <path class="cls-19_data-analysis-1-74" d="M413.64 195.48c0 7.59-6.14 13.74-13.73 13.76h-35.32c-7.6 0-13.76-6.16-13.76-13.76s6.16-13.76 13.76-13.76h5.06v-1.1c-.33-6.98 5.06-12.92 12.04-13.25 6.98-.33 12.92 5.06 13.25 12.04.02.4.02.81 0 1.21v1.13H400c7.55.05 13.64 6.18 13.64 13.73Z"/>
    <path class="cls-1_data-analysis-1-74 targetColor" d="M277.6 120.94c0 5.83-4.72 10.56-10.55 10.58h-27.14c-5.84 0-10.58-4.74-10.57-10.58 0-5.84 4.74-10.57 10.57-10.57h3.9c-.01-.28-.01-.56 0-.84-.1-5.36 4.17-9.79 9.54-9.88 5.36-.1 9.79 4.17 9.88 9.54v.35c.02.28.02.56 0 .84h3.9c5.83 0 10.55 4.72 10.55 10.55v.03h-.09Z" style="fill:#bd93f9"/>
    <path class="cls-19_data-analysis-1-74" d="M274.34 119.93c0 5.84-4.74 10.58-10.58 10.58h-27.11c-5.83.31-10.81-4.18-11.12-10.01-.31-5.83 4.18-10.81 10.01-11.12.37-.02.74-.02 1.11 0h3.87v-.87c0-5.36 4.35-9.71 9.71-9.71s9.71 4.35 9.71 9.71c.01.28.01.56 0 .84h3.87c5.81.05 10.5 4.76 10.52 10.58Z"/>
  </g>
  <g id="gear_data-analysis-1-74">
    <path class="cls-22_data-analysis-1-74 targetColor" d="M86.56 227.88c-.03-1.08.39-2.13 1.16-2.89 1.73-1.78 2.99-3.96 3.64-6.36a7.55 7.55 0 0 0-3.24-8.15 14.394 14.394 0 0 0-5.29-2.57 4.133 4.133 0 0 1-2.89-4.51c.14-1.27.29-2.54.4-3.81.2-2.38 2.27-4.15 4.65-3.99 1.83-.06 3.64-.47 5.32-1.21a7.797 7.797 0 0 0 4.62-9.8c-.5-1.63-1.11-3.22-1.82-4.77a4.28 4.28 0 0 1 1.3-5.2c.95-.78 1.97-1.45 2.89-2.25a4.567 4.567 0 0 1 5.78.17c1.38 1.36 3.01 2.45 4.8 3.21a7.85 7.85 0 0 0 9.68-2.57c1.21-1.69 2.13-3.58 2.72-5.58.61-1.99 2.6-3.23 4.65-2.89 1.27.2 2.51.38 3.79.52a4.07 4.07 0 0 1 3.61 4.05c.09 2.41.72 4.77 1.85 6.91a8.008 8.008 0 0 0 8.29 3.73c1.81-.36 3.57-.99 5.2-1.85 2-1.13 4.54-.49 5.78 1.45.72 1.1 1.68 2.05 2.4 3.15 1.12 1.58.94 3.74-.43 5.12-1.41 1.47-2.53 3.2-3.29 5.09a7.823 7.823 0 0 0 3.76 10.17c1.39.78 2.85 1.42 4.36 1.91 1.78.57 2.97 2.26 2.89 4.13 0 1.53-.29 3.06-.52 4.57a4.04 4.04 0 0 1-4.1 3.55c-2.24.04-4.44.59-6.45 1.59a7.59 7.59 0 0 0-4.1 8.29c.28 1.92.9 3.78 1.82 5.49 1.23 1.96.64 4.55-1.32 5.78l-2.6 2.02a4.186 4.186 0 0 1-5.78-.2 15.494 15.494 0 0 0-5.35-3.29 7.737 7.737 0 0 0-9.22 2.89 18.661 18.661 0 0 0-2.72 5.58 4.047 4.047 0 0 1-4.39 2.89l-4.28-.64a4.125 4.125 0 0 1-3.29-3.76c-.05-2.3-.59-4.56-1.56-6.65a7.718 7.718 0 0 0-8.96-4.34c-1.76.49-3.47 1.13-5.12 1.91-1.74.87-3.85.47-5.14-.98a36.4 36.4 0 0 1-2.89-3.55c-.38-.76-.69-1.55-.92-2.37l.32.03Zm35.09-35.09c-7.57-.05-13.74 6.05-13.79 13.61v.06c.09 7.4 5.96 13.42 13.35 13.7 7.55.45 14.04-5.32 14.48-12.87.45-7.55-5.32-14.04-12.87-14.48-.39-.02-.79-.03-1.18-.02ZM190.58 188.17v1.56a2.89 2.89 0 0 1-2.34 2.89l-2.89.72c-1.51.43-3.1-.31-3.76-1.73-.57-1.17-1.27-2.28-2.08-3.29a5.93 5.93 0 0 0-8.27-1.33c-.14.1-.27.2-.4.31-.93.74-1.81 1.54-2.63 2.4-1 1.17-2.69 1.46-4.02.69l-2.34-1.39a3.3 3.3 0 0 1-1.51-4.41c.01-.02.02-.05.04-.07.45-1.31.73-2.67.81-4.05.25-3.12-2.03-5.88-5.14-6.21-1.45-.23-2.89 0-4.42-.29-1.52 0-2.78-1.17-2.89-2.69-.12-.8-.31-1.59-.55-2.37a3.26 3.26 0 0 1 1.79-3.9c1.38-.72 2.67-1.6 3.84-2.63 2.09-1.9 2.43-5.07.78-7.37-.69-1.06-1.51-2.03-2.43-2.89a3.37 3.37 0 0 1-.91-4.69c.05-.08.1-.15.16-.22.4-.66.78-1.36 1.21-2.02.8-1.43 2.55-2.01 4.05-1.36 1.62.67 3.37.95 5.12.81a5.438 5.438 0 0 0 5.03-4.28c.36-1.54.51-3.13.46-4.71-.09-1.49.8-2.86 2.2-3.38 1.07-.32 2.14-.55 3.21-.78a2.89 2.89 0 0 1 3.66 1.83c.02.05.03.09.04.14.73 1.68 1.85 3.17 3.27 4.34a6 6 0 0 0 7.57-.32c.83-.66 1.61-1.4 2.31-2.2a3.272 3.272 0 0 1 4.1-.69l2.69 1.59c1.34.79 1.88 2.45 1.27 3.87-.6 1.51-.9 3.12-.87 4.74a5.785 5.785 0 0 0 5.06 5.78c1.31.19 2.63.28 3.96.26a3.093 3.093 0 0 1 3.38 2.72c.23.92.49 1.82.69 2.89.39 1.45-.4 2.96-1.82 3.47-1.53.68-2.91 1.66-4.05 2.89a5.44 5.44 0 0 0-.92 6.47c.82 1.32 1.79 2.55 2.89 3.64 1.39 1.05 1.7 3.02.69 4.45l-1.3 2.17a3.181 3.181 0 0 1-4.22 1.47c-1.91-.8-4.03-.97-6.04-.49a5.776 5.776 0 0 0-4.05 4.48c-.21 1.04-.37 2.09-.46 3.15l.03.03Zm-11.56-36.01c-5.63-.06-10.25 4.45-10.32 10.09v.15c-.3 5.69 4.07 10.55 9.76 10.85 5.69.3 10.55-4.07 10.85-9.76.02-.36.02-.73 0-1.09.03-5.62-4.5-10.2-10.11-10.23h-.23.06Z" style="fill:#bd93f9"/>
  </g>
  <g id="character_2_data-analysis-1-74">
    <path class="cls-18_data-analysis-1-74" d="M341.76 336.89c.07 1.74-.26 3.46-.95 5.06a8.319 8.319 0 0 1-3.64 3.38c-3.3 1.71-7.13 2.08-10.69 1.04-.86-.04-1.53-.77-1.49-1.63 0-.05 0-.11.02-.16a8.092 8.092 0 0 1 2.89-5.03 17.02 17.02 0 0 0 3.87-4.42c1.62-3.29.4-12.11 6.65-10.69 5.12 1.1 3.5 8.7 3.35 12.46Z"/>
    <path class="cls-22_data-analysis-1-74 targetColor" d="M342.63 342.67s.87 2.17-.2 3.44-12.28 8.24-19.83 2.63c-7.54-5.61 10.23-6.33 10.23-6.33l9.8.26Z" style="fill:#bd93f9"/>
    <path class="cls-19_data-analysis-1-74" d="M342.2 337.7a1.62 1.62 0 0 0-2.02.52 6.603 6.603 0 0 1-6.01 2.17c-2.46-.58-3.44-3.41-4.65-3.44s-7.75 5.55-8.12 7.92 2.89 4.13 6.65 4.36 12.02-2.31 13.61-4.25a7.891 7.891 0 0 0 .55-7.28Z"/>
    <path class="cls-18_data-analysis-1-74" d="M363.15 340.22c.07 1.74-.26 3.46-.95 5.06a8.319 8.319 0 0 1-3.64 3.38c-3.29 1.72-7.12 2.1-10.69 1.07-.49-.1-.93-.36-1.24-.75-.18-.33-.26-.7-.23-1.07a8.092 8.092 0 0 1 2.89-5.03 17.02 17.02 0 0 0 3.87-4.42c1.62-3.29.4-12.11 6.65-10.69 5.12 1.18 3.5 8.79 3.35 12.46Z"/>
    <path class="cls-22_data-analysis-1-74 targetColor" d="M364.02 346.2s.87 2.17-.2 3.44-12.28 8.24-19.83 2.63c-7.54-5.61 10.2-6.33 10.2-6.33l9.83.26Z" style="fill:#bd93f9"/>
    <path class="cls-19_data-analysis-1-74" d="M363.58 341.14c-.71-.37-1.58-.15-2.02.52a6.642 6.642 0 0 1-6.01 2.14c-2.46-.58-3.44-3.41-4.65-3.44s-7.75 5.55-8.12 7.92c-.38 2.37 2.89 4.13 6.65 4.36 3.76.23 12.02-2.31 13.61-4.25a7.83 7.83 0 0 0 .55-7.25Z"/>
    <path class="cls-15_data-analysis-1-74" d="M367.6 248.17s1.18 64.05-3.58 85.43L352 335.07l-8.35-87.77 23.96.87Z"/>
    <path class="cls-15_data-analysis-1-74" d="M330.41 241.17s-5.78 34.68 1.21 90.06l12.02 1.47 8.35-87.72-21.59-3.81Z"/>
    <path class="cls-22_data-analysis-1-74 targetColor" d="M316.45 213.6c0 2.31.9 4.34 2.89 5 .16.07.34.12.52.14 3.7.75 8.67-2.05 11.94-4.51 1.4-1.02 2.74-2.12 4.02-3.29V186.2l-17.98 18.41c-.94 2.9-1.41 5.94-1.39 8.99Z" style="fill:#bd93f9"/>
    <path class="cls-22_data-analysis-1-74 targetColor" d="M331.5 214.15v3.5c0 6.39 1.47 12.98-.43 19.25a7.153 7.153 0 0 0-.52 4.28 5.305 5.305 0 0 0 2.69 2.57 53.817 53.817 0 0 0 18.5 4.91c4.77.66 11.56 2.08 15.98-.49a7.975 7.975 0 0 0 3.12-5.17c1.68-6.62 2.64-13.4 2.89-20.23 0-.87 0-1.76.17-2.66.38-6.1.49-12.25.38-18.35 0-4.45-.43-9.25-3.32-12.6a31.767 31.767 0 0 0-16.94-8.32c-1.84-.38-3.73-.49-5.61-.32-2.64.42-5.19 1.29-7.54 2.57-2.79.95-5.16 2.84-6.71 5.35a37.512 37.512 0 0 0-3.27 10.06c-.51 3.29-.56 6.64-.17 9.94.17 1.62.58 3.24.75 4.83.03.32.03.61.03.9Z" style="fill:#bd93f9"/>
    <path class="cls-2_data-analysis-1-74" d="M357.6 250.33c1.85.55 6.13-1.13 7.54-1.39.84 0 1.62-.58 2.46-.78 4.25-1.07 4.74-12.95 5.14-16.16 1.46-8.5 2.43-17.08 2.89-25.69.19-3.28-.19-6.56-1.13-9.71-.95-3.19-3.27-5.8-6.33-7.11-5.4-1.94-7.02 15.17-7.77 18.7l-4.05 19.34c-.58 2.38-.95 4.81-1.13 7.25.1 2.97.71 5.91 1.82 8.67.49 1.71-.87 4.91-.2 6.16.11.35.39.63.75.72Z"/>
    <path class="cls-18_data-analysis-1-74" d="M344.57 175.42a4 4 0 0 0 2.6 1.3c.84.07 1.68.07 2.51 0h.49c.1-.03.21-.03.32 0 .1.1.16.23.17.38.14 1.67.14 3.36 0 5.03v.9c-.09.31-.09.64 0 .95.17.38.61.52 1.01.66.73.25 1.51.38 2.28.38 1.65-.15 3.24-.71 4.62-1.62-.13-2.9.03-5.8.46-8.67a45.79 45.79 0 0 0 1.1-11.01c-.1-1.45-.63-2.84-1.53-3.99a7.073 7.073 0 0 0-5.46-1.97c-2.64-.05-5.24.66-7.49 2.05-.84.55-.92 1.27-1.13 2.2-.26 1.45-.49 2.89-.66 4.39-.17 1.5-.29 3.32-.32 5.03-.16 1.41.2 2.83 1.01 3.99Z"/>
    <path class="cls-15_data-analysis-1-74" d="M346.3 154.96a2.347 2.347 0 0 0-1.94 2.11c-.04 1.07.67 2.03 1.71 2.31-.16 1.23.66 2.37 1.88 2.6 1.18.17 2.39.02 3.5-.43a4.01 4.01 0 0 0 5.14.95v.66c.55 1.15.89 2.4 1.01 3.67l-.32 2.46a2.435 2.435 0 0 1 2.66-2.14c.36-.04.71.08.98.32.11.18.18.37.2.58.04.78-.31 1.52-.92 1.99-.43.29-.98.49-1.18.98-.14.47-.14.97 0 1.45.12.55.06 1.13-.17 1.65l.81-.2c.24-.13.46-.28.66-.46.45-.49.65-1.16.55-1.82a2.697 2.697 0 0 0 2.55-3.59c.89-.12 1.51-.93 1.39-1.82v-.03c-.17-.86-.57-1.66-1.16-2.31a2.57 2.57 0 0 0 2.54-2.57 3.89 3.89 0 0 1 0-1.18c.17-.45.4-.87.69-1.24.53-1.02.33-2.26-.49-3.06-.58-.52-1.39-.78-1.82-1.42-.23-.59-.38-1.22-.43-1.85-.52-2.34-3.12-3.44-5.4-4.19-.61-.25-1.28-.36-1.94-.32-.67.05-1.23.55-1.36 1.21-.62-.52-1.39-.85-2.2-.92-.78 0-1.65.72-1.45 1.47-.32-1.27-2.46 2.02-2.57 2.11-1.42.87-3.58 0-2.92 3.03Z"/>
    <path d="M349.68 176.78h.49c.1-.03.21-.03.32 0 .1.1.16.23.17.38.14 1.67.14 3.36 0 5.03a6.762 6.762 0 0 0 4.74-7.14c-1.86.76-3.8 1.33-5.78 1.68l.06.06Z" style="fill:url(#linear-gradient-3-data-analysis-1-74);stroke-width:0"/>
    <path class="cls-22_data-analysis-1-74 targetColor" d="M301.3 207.21c2.36 3.37 5.3 6.31 8.67 8.67 2.42 1.63 5.21 2.63 8.12 2.89.38.04.77 0 1.13-.14a3.04 3.04 0 0 0 1.56-1.07 8.988 8.988 0 0 0 2.08-5.12c.2-4.94-5.14-7.8-5.14-7.8s-12.17-3.87-13.61-3.24c-.78.32-1.53 2.05-2.05 3.53-.52 1.47-.75 2.28-.75 2.28Z" style="fill:#bd93f9"/>
    <path class="cls-2_data-analysis-1-74" d="M301.3 207.21c2.36 3.37 5.3 6.31 8.67 8.67 2.42 1.63 5.21 2.63 8.12 2.89.38.04.77 0 1.13-.14.16.07.34.12.52.14 3.7.75 8.67-2.05 11.94-4.51l-1.16-7.4a29.506 29.506 0 0 1-7.63 5.78 10.8 10.8 0 0 1-6.53 1.18c-.61-.09-1.2-.26-1.76-.52-4.56-2.22-8.8-5.05-12.6-8.41-.4 1.24-.69 2.31-.69 2.31Z"/>
    <path class="cls-22_data-analysis-1-74 targetColor" d="M381.85 215.28c1.88 4.25 2.69 8.89 2.37 13.53-.81 5.55-4.51 10.2-8.06 14.45-2.89.43-6.45.38-7.46-2.28a6.67 6.67 0 0 1-.17-2.63l.4-5.78c.33-2.55.19-5.13-.4-7.63-1.1-2.72-2.55-5.28-4.31-7.63a29.419 29.419 0 0 1-4.42-13.35c-.32-4.45 3.06-18.84 9.62-14.45 2.72 1.79 5.14 9.19 6.59 12.17 2.2 4.45 4.14 8.99 5.84 13.61Z" style="fill:#bd93f9"/>
    <path class="cls-18_data-analysis-1-74" d="M367.02 247.3c-.15.21-.23.46-.23.72 0 .24.2.43.44.43.05 0 .1 0 .14-.02.66 2.05-.72 4.22-.72 6.39-.03.19-.03.39 0 .58.11.24.28.44.49.58.74.47 1.67.52 2.46.14.78-.37 1.47-.89 2.05-1.53 1.24-1.14 2.19-2.57 2.75-4.16.21-.74.34-1.49.4-2.25l.69-5.78c-4.13-1.3-6.5 1.5-8.47 4.91ZM302 196.63c-.12-.39-.34-.74-.64-1.01a.715.715 0 0 0-1.02-.02l-.02.02c-.11.2-.18.43-.2.66-.23.51-.74.84-1.3.84-.55-.04-1.09-.17-1.59-.4-1.45-.53-2.93-.98-4.42-1.36-.35-.11-.72-.11-1.07 0-.37.19-.64.53-.75.92a5.79 5.79 0 0 0 .92 5.43 9.286 9.286 0 0 0 4.74 3.12c1.89.51 3.83.79 5.78.84.48.07.97 0 1.42-.2 2.31-1.33-1.18-7.31-1.85-8.84ZM360.14 166.37a.89.89 0 0 1 .81 0c.11.11.19.25.23.4.61 1.41.01 3.04-1.36 3.73-.21.15-.44.26-.69.32a.683.683 0 0 1-.69-.2.937.937 0 0 1-.23-.66c-.33-1.51.49-3.03 1.94-3.58Z"/>
  </g>
  <g id="character_1_data-analysis-1-74">
    <path class="cls-22_data-analysis-1-74 targetColor" d="M162.95 239.81s0 26.76-1.91 31.62c-4.94 13.58-11.56 19.13-11.56 19.13-2.6 9.85-5.18 19.7-7.75 29.57 2.51 2.89 6.71 5.78 9.54 3.27.74-.74 1.32-1.63 1.71-2.6l13.61-29.65a75.575 75.575 0 0 0 6.53-18.21v-.69c0-.38.2-1.62.38-3.41.43-5.23-.43-29.97-2.89-36.47 0 0-9.16 3.15-11.79-.43l4.13 7.89Z" style="fill:#bd93f9"/>
    <path d="M162.95 239.81s0 26.76-1.91 31.62c-4.94 13.58-11.56 19.13-11.56 19.13-2.6 9.85-5.18 19.7-7.75 29.57 2.51 2.89 6.71 5.78 9.54 3.27.74-.74 1.32-1.63 1.71-2.6l13.61-29.65a75.575 75.575 0 0 0 6.53-18.21v-.69c0-.38.2-1.62.38-3.41.43-5.23-.35-25.26-2.66-31.79-2.98.53-6.02-.46-8.12-2.63l.23 5.4Z" style="fill:url(#linear-gradient-4-data-analysis-1-74);stroke-width:0"/>
    <path class="cls-22_data-analysis-1-74 targetColor" d="M140.15 235.97a16.407 16.407 0 0 0-2.57 12.2c.92 6.39 5.49 11.56 6.42 17.86a7.37 7.37 0 0 1-4.71 7.69l-17.8 9.19a18.391 18.391 0 0 0-7.75 6.04 6.362 6.362 0 0 0 1.5 8.67l34.28-6.97a31.437 31.437 0 0 0 13.76-17.75c1.3-5-.46-38.5-.46-38.5-5.55-5.32-7.46-3.32-10.9-7.37-4.13 3.12-8.67 4.74-11.76 8.93Z" style="fill:#bd93f9"/>
    <path class="cls-20_data-analysis-1-74" d="M112.52 303.11c0 1.94.38 4.25-1.1 5.55-.12.15-.3.25-.49.26-.28 0-.55-.12-.75-.32-3.38-2.89-4.28-7.72-4.57-12.17a4.84 4.84 0 0 1 .55-3.27 5.6 5.6 0 0 1 2.89-1.59c1.76-.54 3.46-1.23 5.09-2.08-.49.26-.32 3.15-.32 3.64.22 1.08.33 2.19.32 3.29-.32.98-.7 1.95-1.13 2.89-.36 1.23-.53 2.51-.49 3.79ZM150 330.59c.91 1.38 1.39 3 1.39 4.65-.02.3-.14.59-.35.81-.61.58-1.59.17-2.25-.29a29.048 29.048 0 0 1-6.47-7.25c-.28-.32-.47-.71-.55-1.13-.02-.57.14-1.12.46-1.59l1.97-3.61a.8.8 0 0 1 .23-.29c.13-.04.27-.04.4 0 1.04.21 2.06.52 3.03.92 1.33.55 1.36.61 1.21 1.97-.2 1.98.12 3.98.92 5.81Z"/>
    <path class="cls-22_data-analysis-1-74 targetColor" d="M140.15 330.59c-.06.19-.06.39 0 .58 0 .26.32.43.52.58 1.15.92 2.19 1.96 3.12 3.09 2.08 2.08 4.32 4.02 6.68 5.78.9.93 2.14 1.45 3.44 1.45.14.03.29.03.43 0 .16-.16.25-.38.26-.61.22-1.98-.11-3.98-.95-5.78-.27-.71-.66-1.37-1.16-1.94-.53-.57-1.28-.88-2.05-.87-.84 0-1.59.69-2.46.69a3.29 3.29 0 0 1-2.14-1.33c-.67-.76-1.28-1.57-1.82-2.43-.4-.64-.78-1.79-1.45-2.2-1.53-1.1-2.14 1.99-2.43 2.98ZM103.76 293.95c-.46.26-.62.84-.37 1.3.02.04.05.08.08.12.49 1.59.82 3.23.98 4.88.62 3.33 1.49 6.6 2.6 9.8a5.563 5.563 0 0 0 2.34 3.58c.17.04.35.04.52 0 .25-.07.47-.21.64-.4a12.5 12.5 0 0 0 2.89-6.13c.17-.86.17-1.74 0-2.6-.14-.87-.64-1.64-1.39-2.11-.84-.46-1.94-.35-2.75-.92-.75-.66-1.18-1.6-1.18-2.6-.14-1.14-.2-2.29-.17-3.44 0-.9.38-2.23 0-2.89-.78-1.88-3.32.66-4.19 1.42Z" style="fill:#bd93f9"/>
    <path class="cls-16_data-analysis-1-74" d="M173.12 171.23c-.49 4.02-1.64 7.92-3.41 11.56-.11.37-.35.7-.66.92-.31.15-.65.21-.98.17l-13.47-.17c-1.07 0-2.4-.17-2.89-1.18-.43.9-1.68.95-2.66.84-4.31-.5-8.48-1.79-12.31-3.81 1.46-5.24 3.34-10.35 5.61-15.29.78-1.75 1.84-3.35 3.15-4.74 1.77-1.68 3.89-2.94 6.21-3.7 5.78-2.08 14.02-3.24 18.44 2.11 2.76 3.84 3.84 8.64 2.98 13.29Z"/>
    <path class="cls-21_data-analysis-1-74" d="M172.72 190.36c5.4 5.58 10.95 11.07 16.24 16.76 1.66-1.18 3.4-2.24 5.2-3.18 2.43-.98 18.24-8.99 24.34-10.23 3.27-.67 6.65-.49 9.83.52.53.12.98.44 1.27.9.43.87-.52 1.82-1.45 2.02-.98.07-1.94.24-2.89.49-.77.46-1.43 1.08-1.94 1.82a11.234 11.234 0 0 1-8.29 3.76c-1.3 0-2.63-.64-3.9-.55-1.76.49-3.37 1.39-4.71 2.63-4.25 2.89-8.03 6.56-12.34 9.45-.84.67-1.83 1.11-2.89 1.27-1 0-1.99-.23-2.89-.66a50.861 50.861 0 0 1-17.34-9.86 4.51 4.51 0 0 1-1.01-1.33c-.16-.52-.24-1.07-.23-1.62v-6.79c0-1 .23-1.99.66-2.89.5-.94 1.56-1.44 2.6-1.21"/>
    <path class="cls-17_data-analysis-1-74" d="M183.01 208.02c.52.42 1.09.77 1.71 1.04 1.36.44 2.8.58 4.22.4 2.15-.05 4.31.08 6.45.38.54.04 1.07.21 1.53.49.46.3.67.86.52 1.39-.15.28-.35.51-.61.69a11.96 11.96 0 0 1-5.78 3.12c-2.71.07-5.37-.78-7.54-2.4l-4.74-2.89c-.71-.34-1.34-.85-1.82-1.47-.66-1.04-.81-3.9.81-4.19s4.19 2.72 5.26 3.44Z"/>
    <path class="cls-19_data-analysis-1-74" d="M169.94 186.61c-1.71-1.3-3.7-.4-5.78-.32-2.08.09-4.65.17-6.97 0-4.42-.14-11.56-.61-15.64 4.22-4.86 5.78-1.04 15.32 1.47 21.39.89 1.58 1.51 3.3 1.85 5.09.26 1.98.26 3.98 0 5.95a23.58 23.58 0 0 1-4.42 10.64 5.409 5.409 0 0 0-1.68 3.99c.4 1.3 1.35 2.36 2.6 2.89 4.62 2.7 9.83 4.24 15.17 4.48 2.49-.04 4.98-.36 7.4-.95 2.2-.35 4.6.4 6.21-1.65.5-.72.86-1.54 1.04-2.4 1.85-6.97 1.82-14.45 4.6-21.04 1.47-3.58 3.96-7.92 3.73-11.91-.16-1.54-.57-3.04-1.21-4.45-1.39-3.5-2.89-6.94-4.57-10.29-.83-2.14-2.14-4.07-3.81-5.64Z"/>
    <path class="cls-21_data-analysis-1-74" d="M164.48 188.05s-1.45 3.64-11.07-1.73c0 0 2.6-.23 1.88-5.58-.21-1.84-.85-3.6-1.88-5.14.36.36.94.37 1.31.01.12-.12.21-.28.25-.45.18.53.4 1.04.66 1.53 1.5 2.89 4.8 6.33 8.47 5.35a5.82 5.82 0 0 0-.35 4.57c.18.51.43.99.72 1.45Z"/>
    <path class="cls-17_data-analysis-1-74" d="M163.76 186.61h-.49c-3.61.38-7.86-10.17-7.86-10.17h.23c1.5 2.89 4.8 6.33 8.47 5.35a5.793 5.793 0 0 0-.35 4.83Z"/>
    <path class="cls-21_data-analysis-1-74" d="M161.01 182.44c5.26.46 8.5-4.48 9.08-10.92v-2.17c.01-2.1-.23-4.2-.72-6.24-2.31-9.91-16.39-5.95-16.39-5.95-10.98 4.97-1.27 24.54 8.03 25.29Z"/>
    <path class="cls-16_data-analysis-1-74" d="M164.77 156.95c-.17.78-.39 1.54-.66 2.28-.44 1.56-.97 3.09-1.59 4.6a14.46 14.46 0 0 1-5.78 7.31c-.62.44-1.37.68-2.14.66-.72-.14-.66-.69-1.21-1.21-.38-.36-.94-.45-1.42-.23-.39.31-.6.78-.58 1.27.02 1.18.64 2.27 1.65 2.89.47.2.91.46 1.33.75.49.43.55 1.07.81 1.62l.87 2.05c.32.65.48 1.36.46 2.08-.15.84-.67 1.57-1.42 1.99a9.28 9.28 0 0 1-6.21.81c-1.5-.08-2.95-.54-4.22-1.33-.71-.57-1.37-1.19-1.99-1.85a14.5 14.5 0 0 0-3.29-1.82c1.21-.83 2.26-1.88 3.09-3.09a9.24 9.24 0 0 0 .87-7.69c-.46-1.62 0-10.23 6.07-13.09 3.9-1.71 8.25-2.11 12.4-1.16.77.12 1.49.45 2.08.95.68.51 1.02 1.36.9 2.2Z"/>
    <path class="cls-21_data-analysis-1-74" d="m155.41 217.18-4.02 8.87a73.597 73.597 0 0 1-11.99-22.54c-2.89-10.32 2.23-12.92 2.23-12.92 3.93-1.45 6.59 4.13 10.43 15.43 2.11 6.21 3.35 11.16 3.35 11.16Z"/>
    <path class="cls-21_data-analysis-1-74" d="M151.39 226.06s-.17-7.23 3.35-8.67c3.53-1.45 28.15-5.32 28.15-5.32l2.31 2.69s-24.19 13.96-33.81 11.3Z"/>
    <path class="cls-22_data-analysis-1-74 targetColor" d="m191.33 245.1-.32-.32c1.21 1.36 2.02 2.31 2.25 2.6-.61-.78-1.27-1.56-1.94-2.28Z" style="fill:#bd93f9"/>
    <path class="cls-21_data-analysis-1-74" d="M185.55 211.69c2.11-.37 4.25-.58 6.39-.64 1.15-.05 2.31.05 3.44.29 1.41.38 2.78.91 4.08 1.59.35.17.78.4.84.81.01.38-.2.73-.55.9-.34.15-.7.25-1.07.32-.78.26-1.47.78-2.23 1.1-1.21.49-2.6.43-3.84.87-.78.29-1.5.78-2.28 1.1-1.64.64-3.45.64-5.09 0-.56-.22-1.11-.47-1.65-.75-.51-.3-1.06-.55-1.62-.75-.38 0-.64 0-.92-.35-.52-.89-.52-2 0-2.89a3.93 3.93 0 0 1 2.63-1.01l1.88-.58Z"/>
    <path class="cls-19_data-analysis-1-74" d="M137.83 194.12a28.7 28.7 0 0 0-1.27 5.78l-.38 2.66a2.83 2.83 0 0 0 0 1.68c.46.92 2.23.55 3.09.69l4.74.75 9.45 1.39c.2-1.61.2-3.24 0-4.86-.29-1.5-.95-2.89-1.33-4.42-.38-1.53-.43-2.51-.72-3.64a11.57 11.57 0 0 0-4.31-6.36c-3.32-2.43-8.18 3.44-9.19 6.1l-.09.23Z"/>
  </g>
  <g id="idea_data-analysis-1-74">
    <path class="cls-22_data-analysis-1-74 targetColor" d="M335.9 115.57c0 2.34-.62 4.64-1.82 6.65v.17l-5.78 10.58h-12.14l-4.91-11.42c-3.26-6.42-.71-14.26 5.71-17.53 6.42-3.26 14.26-.71 17.53 5.71.92 1.81 1.4 3.81 1.42 5.83Z" style="fill:#bd93f9"/>
    <path d="M335.9 115.57c0 2.34-.62 4.64-1.82 6.65v.17l-5.78 10.58h-12.14l-4.91-11.42c-2.97-5.8-1.22-12.9 4.1-16.65a12.95 12.95 0 0 1 7.51-2.37c7.2 0 13.03 5.84 13.03 13.03Z" style="fill:url(#linear-gradient-5-data-analysis-1-74);stroke-width:0"/>
    <path d="M329.42 115.31c-.29 5.78-5.38 17.66-5.38 17.66h-7.89l-4.91-11.42c-2.97-5.8-1.22-12.9 4.1-16.65 5.71-1.79 11.79 1.39 13.58 7.11.33 1.07.5 2.18.49 3.3Z" style="fill:url(#linear-gradient-6-data-analysis-1-74);stroke-width:0"/>
    <path class="cls-22_data-analysis-1-74 targetColor" d="M316.16 132.94h11.94v3.9c0 3.19-2.59 5.78-5.78 5.78h-.58c-3.19 0-5.78-2.59-5.78-5.78v-3.9h.2Z" style="fill:#bd93f9"/>
    <path class="cls-22_data-analysis-1-74 targetColor" d="M319.63 133.4a.43.43 0 0 1-.46-.38c-1.94-10.14-2.23-11.71-2.28-11.94-.04-.25.13-.48.38-.52h1.24c.69 0 .92 0 1.04-.52.03-.26.15-.49.35-.66.36-.25.85-.19 1.13.14.19.21.31.47.35.75l.35 1.36v-.2c.05-.3.17-.59.35-.84.25-.27.61-.41.98-.38.32.02.62.17.84.4 0-.52.29-1.04.46-1.53s.58-.61.66-.55c.32 0 .58.24.64.55.11.41.18.82.2 1.24-.02.12-.02.25 0 .38h1.53c.14 0 .26.07.35.17a.5.5 0 0 1 0 .38l-2.34 11.97c0 .26-.22.46-.48.45-.26 0-.46-.22-.45-.48 0-.05.01-.1.03-.15l2.23-11.42h-.46c-.35 0-.95.17-1.27-.32-.13-.24-.2-.51-.2-.78-.05.23-.12.47-.2.69-.17.66-.61.81-.92.75a.894.894 0 0 1-.58-.46s0-.17-.23-.17a.182.182 0 0 0-.2 0c-.09.13-.14.28-.17.43-.05.26-.14.51-.26.75-.23.35-.68.5-1.07.35-.24-.16-.41-.41-.46-.69l-.38-1.56c.01-.06.01-.12 0-.17-.26.81-1.07 1.31-1.91 1.18h-.61c.43 2.37 2.17 11.42 2.17 11.42.05.23-.1.47-.33.52h-.02l.03-.17Z" style="fill:#bd93f9"/>
  </g>
  <g id="graphic_data_data-analysis-1-74">
    <path class="cls-19_data-analysis-1-74" d="M199.74 149.73h100.98v90.75H199.74z"/>
    <path class="cls-22_data-analysis-1-74 targetColor" transform="rotate(-.26 219.873 218.664)" style="fill:#bd93f9" d="M213.54 209.77h12.37v18.38h-12.37z"/>
    <path class="cls-22_data-analysis-1-74 targetColor" transform="rotate(-.26 235.319 209.885)" style="fill:#bd93f9" d="M228.75 190.63h12.37v37.43h-12.37z"/>
    <path class="cls-22_data-analysis-1-74 targetColor" transform="rotate(-.26 250.73 216.53)" style="fill:#bd93f9" d="M244.05 205.21h12.37v22.8h-12.37z"/>
    <path class="cls-22_data-analysis-1-74 targetColor" transform="rotate(-.26 266.185 203.344)" style="fill:#bd93f9" d="M259.22 178.64h12.37v49.31h-12.37z"/>
    <path transform="rotate(-.26 235.319 209.885)" style="fill:url(#linear-gradient-7-data-analysis-1-74);stroke-width:0" d="M228.75 190.63h12.37v37.43h-12.37z"/>
    <path transform="rotate(-.26 266.185 203.344)" style="fill:url(#linear-gradient-8-data-analysis-1-74);stroke-width:0" d="M259.22 178.64h12.37v49.31h-12.37z"/>
    <path class="cls-22_data-analysis-1-74 targetColor" transform="rotate(-.26 281.626 196.768)" style="fill:#bd93f9" d="M274.44 164.81h12.37v63.06h-12.37z"/>
    <circle class="cls-22_data-analysis-1-74 targetColor" cx="234.94" cy="185.25" r="2.05" style="fill:#bd93f9"/>
    <circle class="cls-22_data-analysis-1-74 targetColor" cx="217.69" cy="204.81" r="2.05" style="fill:#bd93f9"/>
    <circle class="cls-22_data-analysis-1-74 targetColor" cx="249.8" cy="200.94" r="2.05" style="fill:#bd93f9"/>
    <circle class="cls-22_data-analysis-1-74 targetColor" cx="264.54" cy="174.35" r="2.05" style="fill:#bd93f9"/>
    <circle class="cls-22_data-analysis-1-74 targetColor" cx="280.64" cy="161.49" r="2.05" style="fill:#bd93f9"/>
    <path class="cls-22_data-analysis-1-74 targetColor" style="fill:#bd93f9" d="m218.15 205.22-.95-.84 17.74-20.09 14.71 16.25 14.48-26.68 16.1-12.89.78 1.01-15.98 12.78-15.12 28-14.97-16.56-16.79 19.02z"/>
  </g>
  <path class="cls-22_data-analysis-1-74 targetColor" style="fill:#bd93f9" d="m259.51 317.73-24.88-.81 3.09 17.75 17.63.55 4.16-17.49z"/>
  <path style="fill:url(#linear-gradient-9-data-analysis-1-74);stroke-width:0" d="m259.51 317.73-24.88-.81 3.09 17.75 17.63.55 4.16-17.49z"/>
  <path class="cls-22_data-analysis-1-74 targetColor" d="M232.63 274.09a8.342 8.342 0 0 0-.9 4.02 53.36 53.36 0 0 0 1.62 18.7c2.89 8.81 9.19 15.92 15.46 22.75-.49-.75.92-4.74 1.1-5.78.38-1.88.78-3.73 1.16-5.58.4-2.98.14-6.01-.78-8.87a42.573 42.573 0 0 0-8.99-17.69 39.752 39.752 0 0 0-8.67-7.54Z" style="fill:#bd93f9"/>
  <path d="M232.63 274.09a8.342 8.342 0 0 0-.9 4.02 53.36 53.36 0 0 0 1.62 18.7c2.89 8.81 9.19 15.92 15.46 22.75-.49-.75.92-4.74 1.1-5.78.38-1.88.78-3.73 1.16-5.58.4-2.98.14-6.01-.78-8.87a42.573 42.573 0 0 0-8.99-17.69 39.752 39.752 0 0 0-8.67-7.54Z" style="fill:url(#linear-gradient-10-data-analysis-1-74);stroke-width:0"/>
  <path class="cls-22_data-analysis-1-74 targetColor" d="M260.43 295.36c2.31-4.57 4-9.43 5.03-14.45 1.04-5.09 0-10.39-2.89-14.71l-12.05 18.27c-2.49 3.4-4.44 7.16-5.78 11.16-1.93 8.23-.28 16.9 4.54 23.84 2.69-2.31 3.96-7.6 5.43-10.87l5.72-13.24Z" style="fill:#bd93f9"/>
  <path d="M260.43 295.36c2.31-4.57 4-9.43 5.03-14.45 1.04-5.09 0-10.39-2.89-14.71l-12.05 18.27c-2.49 3.4-4.44 7.16-5.78 11.16-1.93 8.23-.28 16.9 4.54 23.84 2.69-2.31 3.96-7.6 5.43-10.87l5.72-13.24Z" style="fill:url(#linear-gradient-11-data-analysis-1-74);stroke-width:0"/>
  <rect class="cls-22_data-analysis-1-74 targetColor" x="243.16" y="297.87" width="8.06" height="34.77" rx="4.03" ry="4.03" transform="rotate(-88.15 247.191 315.255)" style="fill:#bd93f9"/>
</svg>