<svg id="_0232_designer_2" xmlns="http://www.w3.org/2000/svg" xmlns:xlink="http://www.w3.org/1999/xlink" viewBox="0 0 500 500" data-imageid="designer-2-10" class="illustrations_image" style="width:162px">
  <defs>
    <linearGradient id="linear-gradient-designer-2-10" x1="-369.21" y1="2922.36" x2="-307.77" y2="2968.79" gradientTransform="scale(1 -1) rotate(-38.84 -4406.41 452.149)" gradientUnits="userSpaceOnUse">
      <stop offset="0" stop-color="#231f20" stop-opacity="0"/>
      <stop offset="1" stop-color="#231f20"/>
    </linearGradient>
    <linearGradient id="linear-gradient-2-designer-2-10" x1="-357.14" y1="2932.33" x2="-269.05" y2="2996.72" gradientTransform="scale(1 -1) rotate(-38.84 -4406.325 452.179)" xlink:href="#linear-gradient-designer-2-10"/>
    <linearGradient id="linear-gradient-3-designer-2-10" x1="-342.78" y1="2941.51" x2="-213.15" y2="3068.57" gradientTransform="scale(1 -1) rotate(-38.84 -4406.211 452.219)" xlink:href="#linear-gradient-designer-2-10"/>
    <linearGradient id="linear-gradient-4-designer-2-10" x1="-325.85" y1="2956.04" x2="-131.99" y2="3134.11" gradientTransform="scale(1 -1) rotate(-38.84 -4406.14 452.244)" gradientUnits="userSpaceOnUse">
      <stop offset="0" stop-color="#010101" stop-opacity="0"/>
      <stop offset=".36" stop-color="#010101" stop-opacity=".36"/>
      <stop offset=".95" stop-color="#010101"/>
    </linearGradient>
    <linearGradient id="linear-gradient-5-designer-2-10" x1="-306.52" y1="2971.58" x2="-212.14" y2="3048.85" gradientTransform="scale(1 -1) rotate(-38.6 -4435.586 446.457)" gradientUnits="userSpaceOnUse">
      <stop offset="0" stop-color="#fff" stop-opacity="0"/>
      <stop offset=".07" stop-color="#fff" stop-opacity=".22"/>
      <stop offset=".16" stop-color="#fff" stop-opacity=".45"/>
      <stop offset=".25" stop-color="#fff" stop-opacity=".65"/>
      <stop offset=".33" stop-color="#fff" stop-opacity=".8"/>
      <stop offset=".4" stop-color="#fff" stop-opacity=".91"/>
      <stop offset=".46" stop-color="#fff" stop-opacity=".98"/>
      <stop offset=".51" stop-color="#fff"/>
    </linearGradient>
    <linearGradient id="linear-gradient-6-designer-2-10" x1="-304.13" y1="2972.53" x2="-243.29" y2="3025.07" gradientTransform="scale(1 -1) rotate(-38.84 -4405.857 452.344)" xlink:href="#linear-gradient-5-designer-2-10"/>
    <linearGradient id="linear-gradient-7-designer-2-10" x1="348.12" y1="2736.07" x2="891.66" y2="2455.81" gradientTransform="matrix(1 0 0 -1 -471 2803.46)" xlink:href="#linear-gradient-5-designer-2-10"/>
    <linearGradient id="linear-gradient-8-designer-2-10" x1="829.4" y1="2464.56" x2="830.81" y2="2594.55" gradientTransform="matrix(1 0 0 -1 -471 2803.46)" xlink:href="#linear-gradient-designer-2-10"/>
    <linearGradient id="linear-gradient-9-designer-2-10" x1="660.85" y1="2392.22" x2="729.03" y2="2560.13" gradientTransform="matrix(1 0 0 -1 -477.84 2801.45)" xlink:href="#linear-gradient-designer-2-10"/>
    <linearGradient id="linear-gradient-10-designer-2-10" x1="647.88" y1="2400.22" x2="830.15" y2="2638.73" gradientTransform="matrix(1 0 0 -1 -477.84 2801.45)" xlink:href="#linear-gradient-designer-2-10"/>
    <linearGradient id="linear-gradient-11-designer-2-10" x1="702.51" y1="2553.41" x2="631.19" y2="2515.83" gradientTransform="matrix(1 0 0 -1 -477.84 2801.45)" xlink:href="#linear-gradient-designer-2-10"/>
    <linearGradient id="linear-gradient-12-designer-2-10" x1="676.58" y1="2543.45" x2="549.21" y2="2562.26" gradientTransform="matrix(1 0 0 -1 -477.84 2801.45)" xlink:href="#linear-gradient-designer-2-10"/>
    <linearGradient id="linear-gradient-13-designer-2-10" x1="667.31" y1="2581.06" x2="741.33" y2="2685.38" gradientTransform="matrix(1 0 0 -1 -477.84 2801.45)" xlink:href="#linear-gradient-designer-2-10"/>
    <linearGradient id="linear-gradient-14-designer-2-10" x1="725.95" y1="2535.08" x2="735.03" y2="2498.49" gradientTransform="matrix(1 0 0 -1 -471 2803.46)" xlink:href="#linear-gradient-designer-2-10"/>
    <linearGradient id="linear-gradient-15-designer-2-10" x1="765.36" y1="2597.73" x2="803.09" y2="2376.38" gradientTransform="matrix(1 0 0 -1 -471 2803.46)" xlink:href="#linear-gradient-designer-2-10"/>
    <linearGradient id="linear-gradient-16-designer-2-10" x1="767.32" y1="2597.54" x2="804.74" y2="2377.98" gradientTransform="matrix(1 0 0 -1 -471 2803.46)" xlink:href="#linear-gradient-designer-2-10"/>
    <linearGradient id="linear-gradient-17-designer-2-10" x1="749.92" y1="2554.27" x2="827.23" y2="2518.13" gradientTransform="matrix(1 0 0 -1 -471 2803.46)" xlink:href="#linear-gradient-designer-2-10"/>
    <linearGradient id="linear-gradient-18-designer-2-10" x1="728.76" y1="2485.84" x2="653.59" y2="2384.49" gradientTransform="matrix(1 0 0 -1 -477.84 2801.45)" xlink:href="#linear-gradient-designer-2-10"/>
    <linearGradient id="linear-gradient-19-designer-2-10" x1="750.77" y1="2432.89" x2="650.94" y2="2475.8" gradientTransform="matrix(1 0 0 -1 -477.84 2801.45)" xlink:href="#linear-gradient-designer-2-10"/>
    <linearGradient id="linear-gradient-20-designer-2-10" x1="750.13" y1="2526.72" x2="751.08" y2="2502.31" gradientTransform="matrix(1 0 0 -1 -471 2803.46)" xlink:href="#linear-gradient-designer-2-10"/>
    <linearGradient id="linear-gradient-21-designer-2-10" x1="728.61" y1="2525.26" x2="729.88" y2="2498.17" gradientTransform="matrix(1 0 0 -1 -471 2803.46)" xlink:href="#linear-gradient-designer-2-10"/>
    <linearGradient id="linear-gradient-22-designer-2-10" x1="651.55" y1="2609.38" x2="698.36" y2="2593.4" gradientTransform="matrix(1 0 0 -1 -477.84 2801.45)" xlink:href="#linear-gradient-designer-2-10"/>
    <linearGradient id="linear-gradient-23-designer-2-10" x1="640.33" y1="2411.41" x2="860.71" y2="2556.64" gradientTransform="matrix(1 0 0 -1 -471 2803.46)" xlink:href="#linear-gradient-designer-2-10"/>
    <linearGradient id="linear-gradient-24-designer-2-10" x1="685.31" y1="2540.85" x2="692.85" y2="2540.85" gradientTransform="matrix(1 0 0 -1 -471 2803.46)" xlink:href="#linear-gradient-designer-2-10"/>
    <style>
      .cls-28_designer-2-10,.cls-29_designer-2-10,.cls-30_designer-2-10,.cls-31_designer-2-10,.cls-32_designer-2-10,.cls-3_designer-2-10{stroke-width:0}.cls-3_designer-2-10{opacity:.51;isolation:isolate}.cls-28_designer-2-10{isolation:isolate}.cls-28_designer-2-10,.cls-32_designer-2-10,.cls-3_designer-2-10{fill:#68e1fd}.cls-28_designer-2-10{opacity:.24}.cls-29_designer-2-10{fill:#231f20}.cls-30_designer-2-10{fill:#fff}.cls-31_designer-2-10{fill:#ffb4a3}
    </style>
  </defs>
  <g id="background_designer-2-10">
    <path class="cls-28_designer-2-10 targetColor" d="M482.9 227.58c-.6 17.99-7.69 35.11-15.88 51.16-13.82 27.12-31.32 53.14-39.39 82.72-3.55 12.9-1.76 26.52-2.97 39.12-1.03 10.66-4.18 20.6-14.46 28.8-10.88 8.68-25.95 9.7-39.95 9.76-30.36.18-61.88-2.04-89.91 9.47-8.3 3.45-16.12 8-24.65 10.9-16.56 5.66-34.63 4.61-52.12 3.53-17.04-1.07-34.36-2.21-50.49-7.63-16.13-5.42-31.35-15.78-38.78-30.99-3.64-7.46-5.28-15.68-7.65-23.67-1.04-3.6-2.38-7.12-4-10.51-10.85-22.09-37.29-33.13-49.45-54.51-8.42-14.78-8.91-32.63-8.21-49.6.73-17.88 2.7-36.14 10.59-52.25 8.16-16.67 22.13-29.88 36.93-41.28 26.96-20.8 57.34-36.73 85.84-55.35 21.62-14.14 42.21-29.85 64.98-42.1 22.77-12.24 48.21-21.05 74.08-19.72 37.66 1.85 70.83 24.37 100 47.93 16.65 13.41 32.94 27.66 45.37 44.97s20.89 38.04 20.13 59.24Z" style="fill:#bd93f9"/>
    <path class="cls-28_designer-2-10 targetColor" d="M424.65 400.59c-1.03 10.66-4.18 20.6-14.46 28.8-10.88 8.68-25.95 9.7-39.95 9.76-30.36.18-61.88-2.04-89.91 9.47-8.3 3.45-16.12 8-24.65 10.9-16.56 5.66-34.63 4.61-52.12 3.53-17.04-1.07-34.36-2.21-50.49-7.63-16.13-5.42-31.35-15.78-38.78-30.99-3.64-7.46-5.28-15.68-7.65-23.67 45.34-11.29 95.03 6.86 140.24-5.81 10.61-3 20.71-7.61 31.44-10.18 27.89-6.74 51.07 3.68 78.17 6.71 22.59 2.49 42.64-.66 64.98 7.72 1.05.43 2.14.88 3.16 1.38Z" style="fill:#bd93f9"/>
  </g>
  <g id="color_2_designer-2-10">
    <path class="cls-30_designer-2-10" transform="rotate(-.16 347.145 150.886)" d="M279.71 131.14h140.77v40.6H279.71z"/>
    <path class="cls-32_designer-2-10 targetColor" transform="rotate(-.23 293.642 155.04)" style="fill:#bd93f9" d="M289.56 142.32h17.19v27.32h-17.19z"/>
    <path transform="rotate(-.23 293.642 155.04)" style="stroke-width:0;fill:url(#linear-gradient)" d="M289.56 142.32h17.19v27.32h-17.19z"/>
    <path class="cls-32_designer-2-10 targetColor" transform="rotate(-.23 311.08 155.074)" style="fill:#bd93f9" d="M306.64 142.31h17.19v27.32h-17.19z"/>
    <path transform="rotate(-.23 311.08 155.074)" style="fill:url(#linear-gradient-2-designer-2-10);stroke-width:0" d="M306.64 142.31h17.19v27.32h-17.19z"/>
    <path class="cls-32_designer-2-10 targetColor" transform="rotate(-.23 328.518 155.11)" style="fill:#bd93f9" d="M323.73 142.29h17.19v27.32h-17.19z"/>
    <path transform="rotate(-.23 328.518 155.11)" style="fill:url(#linear-gradient-3-designer-2-10);stroke-width:0" d="M323.73 142.29h17.19v27.32h-17.19z"/>
    <path class="cls-32_designer-2-10 targetColor" transform="rotate(-.23 345.955 155.144)" style="fill:#bd93f9" d="M340.82 142.27h17.19v27.32h-17.19z"/>
    <path transform="rotate(-.23 345.955 155.144)" style="fill:url(#linear-gradient-4-designer-2-10);stroke-width:0" d="M340.82 142.27h17.19v27.32h-17.19z"/>
    <path class="cls-32_designer-2-10 targetColor" transform="rotate(-.23 360.902 155.174)" style="fill:#bd93f9" d="M357.9 142.26h17.19v27.32H357.9z"/>
    <path class="cls-32_designer-2-10 targetColor" transform="rotate(-.23 378.345 152.718)" style="fill:#bd93f9" d="M375.19 142.14h17.19v27.32h-17.19z"/>
    <path class="cls-32_designer-2-10 targetColor" transform="rotate(-.23 395.783 152.753)" style="fill:#bd93f9" d="M392.07 142.23h17.19v27.32h-17.19z"/>
    <path style="fill:url(#linear-gradient-5-designer-2-10);stroke-width:0" d="m390.03 169.67-14.57-.12-.11-27.33 14.57.13.11 27.32z"/>
    <path transform="rotate(-.23 393.287 155.24)" style="fill:url(#linear-gradient-6-designer-2-10);stroke-width:0" d="M389.98 142.32h17.19v27.32h-17.19z"/>
  </g>
  <g id="color_1_designer-2-10">
    <path class="cls-32_designer-2-10 targetColor" style="fill:#bd93f9" d="M53.38 94.77h153v205.9h-153z"/>
    <path style="fill:url(#linear-gradient-7-designer-2-10);stroke-width:0" d="M53.38 94.77h153v205.9h-153z"/>
    <ellipse class="targetColor" cx="151.16" cy="189.7" rx="40.21" ry="39.7" style="fill:#bd93f9;opacity:.3;isolation:isolate;stroke-width:0"/>
    <ellipse class="cls-3_designer-2-10 targetColor" cx="131.78" cy="142.91" rx="40.21" ry="39.7" style="fill:#bd93f9"/>
    <ellipse class="cls-3_designer-2-10 targetColor" cx="104.62" cy="192.23" rx="40.21" ry="39.7" style="fill:#bd93f9"/>
    <path class="cls-30_designer-2-10" d="m119.51 191.17.74 14.12 3.64-5.27 4.4 6.74 2.78-1.9-5.05-6.21 5.76-.95-12.27-6.53z"/>
    <path class="cls-3_designer-2-10 targetColor" style="fill:#bd93f9" d="M73.58 252.63h71.71v6.75H73.58z"/>
    <path class="cls-3_designer-2-10 targetColor" style="fill:#bd93f9" d="M73.58 259.09h71.71v6.75H73.58z"/>
    <path class="cls-3_designer-2-10 targetColor" style="fill:#bd93f9" d="M73.58 259.09h71.71v6.75H73.58z"/>
  </g>
  <g id="character_designer-2-10">
    <path class="cls-32_designer-2-10 targetColor" style="fill:#bd93f9" d="M350.42 288.46h15.15v124.89h-15.15z"/>
    <path style="fill:url(#linear-gradient-8-designer-2-10);stroke-width:0" d="M350.69 288.46h15.15v124.89h-15.15z"/>
    <path class="cls-32_designer-2-10 targetColor" d="M179.11 313.89h25.72c20.54 0 37.2 16.43 37.23 36.72v80.17H141.89v-80.17c.02-20.28 16.68-36.72 37.23-36.72Z" style="fill:#bd93f9"/>
    <path d="M242.05 350.66v80.11H141.87v-80.11c-.01-2.73.3-5.46.94-8.12 3.82-16.77 18.91-28.67 36.32-28.65h25.71c20.56 0 37.22 16.47 37.21 36.77Z" style="fill:url(#linear-gradient-9-designer-2-10);stroke-width:0"/>
    <path d="M242.05 350.66v26.16c-.21.27-.42.54-.63.79-3.52-9.34-7.03-18.7-10.56-28.08-5.27 9.77-6.46 21.23-5.7 32.25.76 11.02 3.3 21.85 5.12 32.75.42 2.52.8 5.18-.21 7.54-2.07 4.85-9.22 5.81-13.68 2.93s-6.61-8.17-7.73-13.32c-3.2-14.76.15-30.09-.8-45.15-.37-5.27-1.33-10.74-4.58-14.99-4.64-6.01-12.74-8.05-20.22-9.73-10.62-2.37-22.32-4.58-31.84.57-1.52.79-3.06 1.83-4.79 1.85-1.4 0-2.72-.63-3.6-1.7 3.82-16.76 18.9-28.66 36.3-28.65h25.71c20.56 0 37.22 16.47 37.21 36.77Z" style="fill:url(#linear-gradient-10-designer-2-10);stroke-width:0"/>
    <path d="M181.38 209.42c-1.41 4.19-.95 8.74-.46 13.14.09.79.4 1.85 1.23 1.9.33-.01.65-.12.92-.31a12.81 12.81 0 0 0 3.16-2.66c.45-.65 1.03-1.18 1.72-1.58 1.65-.73 3.39.69 5.03 1.48 1.38.65 2.92.86 4.43.6.39-.07.85-.24.94-.62.03-.2 0-.4-.09-.58-.85-2.19-3-3.6-4.4-5.52a12.894 12.894 0 0 1-2.17-6.4c-.18-1.77.61-4.92-.94-6.2-3.62-3-8.46 4.1-9.36 6.75Z" style="fill:none;stroke:#68e1fd;stroke-miterlimit:10;stroke-width:.75px"/>
    <path class="cls-32_designer-2-10 targetColor" d="M204.14 208.24c1.2 1.15 10.54 9.29 11.3 10.77a47.94 47.94 0 0 1 3.53 8.12c.86 3.14 1.42 6.36 1.68 9.6l1.53 13.58c.05 1.38.42 2.73 1.09 3.94.9 1.13 2.06 2.03 3.4 2.6 7.54 3.98 15.36 7.43 23.4 10.3.18 2.72.02 5.45-.47 8.13-.01.27-.14.53-.35.71-.23.11-.49.13-.74.06-12.62-2.23-24.51-7.63-37.16-9.7-.73-.05-1.44-.29-2.05-.68-.53-.49-.93-1.11-1.15-1.8-1.01-2.42-2.04-4.85-2.84-7.35-1.17-3.61-1.89-7.34-3-10.96-.66-2.17-1.45-4.32-1.89-6.54-.67-3.41-.5-6.91-.31-10.37.03-2.21.32-4.4.85-6.55 1.29-4.44-1.77-18.64 3.2-13.87Z" style="fill:#bd93f9"/>
    <path d="M211.82 220.04c1.2 1.15 2.86-2.51 3.62-1.03a47.94 47.94 0 0 1 3.53 8.12c.86 3.14 1.42 6.36 1.68 9.6l1.53 13.58c.05 1.38.42 2.73 1.09 3.94.9 1.13 2.06 2.03 3.4 2.6 7.54 3.98 15.36 7.43 23.4 10.3.18 2.72.02 5.45-.47 8.13-.01.27-.14.53-.35.71-.23.11-.49.13-.74.06-12.62-2.23-24.51-7.63-37.16-9.7-.73-.05-1.44-.29-2.05-.68-.53-.49-.93-1.11-1.15-1.8-1.01-2.42-2.04-4.85-2.84-7.35-1.17-3.61-1.89-7.34-3-10.96-.66-2.17-1.45-4.32-1.89-6.54-.67-3.41-.5-6.91-.31-10.37.03-2.21.32-4.4.85-6.55 1.29-4.44 5.91-6.84 10.87-2.07Z" style="fill:url(#linear-gradient-11-designer-2-10);stroke-width:0"/>
    <path class="cls-32_designer-2-10 targetColor" d="m216.43 229.8.69 19.65c.18 5.21 0 11.21-4.15 14.53-2.72 2.16-6.69 2.71-8.85 5.4-1.41 1.74-1.77 4.06-1.7 6.27.13 4.43 1.75 8.68 3.44 12.82.54 1.04.8 2.21.76 3.38-.26 2.19-2.47 3.61-4.52 4.56a51.017 51.017 0 0 1-31.11 3.57 52.174 52.174 0 0 1-14.93-5.4c-.52-.22-.96-.59-1.25-1.07-.2-.6-.17-1.26.08-1.84 2.13-6.87 5.98-13.2 7.51-20.22 1.48-6.82.67-13.88.98-20.83.32-7 1.76-13.9 4.29-20.45 1.51-3.94 3.47-7.79 6.54-10.73 5.24-5.04 12.96-6.73 20.31-7.46 1.93-.27 3.9-.24 5.82.09 2.53.55 4.61 2.03 6.88 3.16 1.83.92 4.41 1.16 6.07 2.15 3.64 2.19 3 8.68 3.13 12.4Z" style="fill:#bd93f9"/>
    <path d="m216.43 229.8.69 19.65c.18 5.21 0 11.21-4.15 14.53-2.72 2.16-6.69 2.71-8.85 5.4-1.41 1.74-1.77 4.06-1.7 6.27.13 4.43 1.75 8.68 3.44 12.82.54 1.04.8 2.21.76 3.38-.26 2.19-2.47 3.61-4.52 4.56a51.017 51.017 0 0 1-31.11 3.57 52.174 52.174 0 0 1-14.93-5.4c-.52-.22-.96-.59-1.25-1.07-.2-.6-.17-1.26.08-1.84 2.13-6.87 5.98-13.2 7.51-20.22 1.48-6.82.67-13.88.98-20.83.32-7 1.76-13.9 4.29-20.45 1.51-3.94 3.47-7.79 6.54-10.73 5.24-5.04 12.96-6.73 20.31-7.46 1.93-.27 3.9-.24 5.82.09 2.53.55 4.61 2.03 6.88 3.16 1.83.92 4.41 1.16 6.07 2.15 3.64 2.19 3 8.68 3.13 12.4Z" style="fill:url(#linear-gradient-12-designer-2-10);stroke-width:0"/>
    <path class="cls-31_designer-2-10" d="M192.71 194.29c-.72 3.13-1.2 6.32-1.41 9.52-.21 2.98-.16 6.14 1.34 8.73.87 1.4 2.01 2.62 3.35 3.6a10.54 10.54 0 0 0 5.19 2.41 5.11 5.11 0 0 0 4.99-2.23c.84-1.51.58-3.34.3-5.03l-.85-5.12c-.21-1.96-.79-3.87-1.71-5.62-1.89-3.11-5.65-4.52-9.16-5.59"/>
    <path d="M202.34 215.25c.53.53 1.18.94 1.9 1.19.74.24 1.55.03 2.06-.55.29-.48.43-1.02.41-1.58.09-1.82.16-3.64.2-5.47.1-1.46-.02-2.93-.34-4.35-.6-2.25-2.13-4.13-3.69-5.87s-4.43-4.99-7.12-4.89c-2.96.11-2.01 4.38-1.71 6.25.92 5.88 3.84 11.27 8.29 15.28Z" style="fill:url(#linear-gradient-13-designer-2-10);stroke-width:0"/>
    <path class="cls-32_designer-2-10 targetColor" d="M168.69 218.52c-1.41 2.92-2.16 6.11-3.07 9.22-.99 3.37-2.18 6.67-2.95 10.1a84.19 84.19 0 0 0-1.5 12.85c-.29 4.46-.58 8.91-.58 13.41 0 3.34.3 7.01 2.71 9.36 1.86 1.81 4.59 2.41 7.19 2.89 9.29 1.7 18.69 2.78 28.13 3.24.68.12 1.38-.03 1.94-.42.36-.4.59-.91.63-1.44.42-2.24.56-4.53.42-6.8l-23.37-7.2c-.37-12.14 5.3-23.67 6.96-35.66.24-2.5.62-4.99 1.13-7.45.63-2.45 1.71-4.78 2.32-7.23.48-1.98 1.08-6.14-1.46-7.04-1.95-.69-5.27.79-7.03 1.49-5 2.09-9.07 5.88-11.47 10.68Z" style="fill:#bd93f9"/>
    <path class="cls-31_designer-2-10" d="M215.44 271.88c3.52-.37 7.06-.95 10.59-.73s7.19 1.37 9.59 3.94a5.38 5.38 0 0 1 1.53 2.81c.19 1.09-.27 2.19-1.19 2.82-1.1.65-2.5.28-3.79.27-3.02 0-5.95 2.1-8.85 1.3-1.81-.5-3.27-2.07-5.14-2.14-2.23-.08-3.92 2-6.09 2.54-1.77.44-3.63-.2-5.19-1.11-1.17-.69-2.24-1.54-3.4-2.25-1-.62-2.46-.99-3.33-1.77-1.4-1.23-.8-2.48.55-3.55 3.7-2.95 10.29-1.67 14.72-2.15ZM269.04 269.73c2.95-.03 5.91.09 8.85.37 2.38.18 4.7.81 6.85 1.85a8.956 8.956 0 0 1 4.56 5.18c-3.44 1.87-8.21-.14-11.43 2.09-.66.53-1.29 1.08-1.89 1.67-2.61 2.24-6.34 2.67-9.8 2.66-2.84.12-5.67-.33-8.33-1.33-2.45-1.04-13.46-9.36-9.59-12.04 2.09-1.44 6.66-.54 9.02-.53l11.75.08Z"/>
    <path class="cls-32_designer-2-10 targetColor" style="fill:#bd93f9" d="m239.78 279.75.89-3.13 34.01-1.26.52 4.11-35.42.28z"/>
    <path style="fill:url(#linear-gradient-14-designer-2-10);stroke-width:0" d="m239.78 279.75.89-3.13 34.01-1.26.52 4.11-35.42.28z"/>
    <path class="cls-32_designer-2-10 targetColor" style="fill:#bd93f9" d="M339.48 262.19h-95.15l12.74-67h95.16l-12.75 67z"/>
    <path style="fill:url(#linear-gradient-15-designer-2-10);stroke-width:0" d="m352.21 195.18-12.73 67.01h-95.15l12.73-67.01h95.15z"/>
    <path style="fill:url(#linear-gradient-16-designer-2-10);stroke-width:0" d="m352.21 195.18-12.73 67.01h-91.3l12.73-67.01h91.3z"/>
    <path class="cls-32_designer-2-10 targetColor" style="fill:#bd93f9" d="m289.58 231.56 11.66 44.12H275.2l-3.41 3.79h47.38l-14.51-51.85-13.02-.41-2.06 4.35z"/>
    <path style="fill:url(#linear-gradient-17-designer-2-10);stroke-width:0" d="m289.58 231.56 11.66 44.12H275.2l-3.41 3.79h47.38l-14.51-51.85-13.02-.41-2.06 4.35z"/>
    <path class="cls-32_designer-2-10 targetColor" style="fill:#bd93f9" d="m291.64 227.21 13.02 48.47H275.2v3.79h47.39l-14.51-51.85-16.44-.41z"/>
    <path class="cls-29_designer-2-10" d="M288.99 417.12a1.94 1.94 0 0 1-.7 1.38c-6.94 7.24-18.95 6.94-28.33 3.23-1.64-.66-3.33-1.47-4.36-2.88-1.15-1.58-1.3-3.68-1.4-5.66-.73-17.3-.8-34.71-3.91-51.79-1.03-5.75-2.4-11.44-3.12-17.25-1-8.32-.54-16.76-.88-25.15.05-.63-.15-1.25-.55-1.74-.47-.36-1.07-.52-1.66-.45-2.52-.06-5-.09-7.52-.12-.06 17.61-1.25 34.37-.91 51.97.21 10.12-1.97 20.15-2.55 30.27-.16 1.77-.08 3.55.22 5.29 1.18 5.57 6.27 9.34 9.33 14.16a7.123 7.123 0 0 1 1.33 4.08c-.15 2.3-2.27 4.09-4.55 4.67s-4.67.06-6.91-.54c-1.69-.39-3.31-1.04-4.79-1.94-1.17-.83-2.23-1.81-3.15-2.91-1.82-2.04-3.58-4.16-5.25-6.31a9.112 9.112 0 0 1-1.6-2.72c-.85-2.7.8-5.45 1.97-8.02a27.296 27.296 0 0 0 1.6-17.96 52.054 52.054 0 0 1-2.06-13.41c-.1-15.09-.33-30.18-.7-45.27a171.967 171.967 0 0 1-34.62.92c-7.77-.54-16.08-1.89-21.72-7.19-6.09-5.69-7.67-14.63-7.85-22.88-.06-2.93 0-5.99 1.49-8.5 11.24-.09 26.5 1.11 37.75 1.02 2.59-.11 5.18.06 7.73.51 1.13.13 2.26.19 3.4.18 5.7.21 17.4.54 29.08 2.81.05.01.1.01.15 0 7.46 1.47 14.89 3.72 20.71 7.31.54.33 1.09.66 1.6 1.02 1.01.7 1.98 1.45 2.92 2.25l.09.09c3.8 3.3 6.21 7.88 6.76 12.84.1.9.18 1.95.25 3.12s.09 2.52.09 3.94v1.62c.15 14.99-1.06 40.23.34 59.88.63 8.68 2.57 18.53 10.04 23.26 3.6 2.3 8.09 3.08 11.43 5.78.42.23.72.63.84 1.09Z"/>
    <path d="M288.99 417.12a1.94 1.94 0 0 1-.7 1.38c-6.94 7.24-18.95 6.94-28.33 3.23-1.64-.66-3.33-1.47-4.36-2.88-1.15-1.58-1.3-3.68-1.4-5.66-.73-17.3-.8-34.71-3.91-51.79-1.03-5.75-2.4-11.44-3.12-17.25-1-8.32-.54-16.76-.88-25.15.05-.63-.15-1.25-.55-1.74-.47-.36-1.07-.52-1.66-.45-2.52-.06-5-.09-7.52-.12-.06 17.61-1.25 34.37-.91 51.97.21 10.12-1.97 20.15-2.55 30.27-.16 1.77-.08 3.55.22 5.29 1.18 5.57 6.27 9.34 9.33 14.16a7.123 7.123 0 0 1 1.33 4.08c-.15 2.3-2.27 4.09-4.55 4.67s-4.67.06-6.91-.54c-1.69-.39-3.31-1.04-4.79-1.94-1.17-.83-2.23-1.81-3.15-2.91-1.82-2.04-3.58-4.16-5.25-6.31a9.112 9.112 0 0 1-1.6-2.72c-.85-2.7.8-5.45 1.97-8.02a27.296 27.296 0 0 0 1.6-17.96 52.054 52.054 0 0 1-2.06-13.41c-.1-15.09-.33-30.18-.7-45.27a171.967 171.967 0 0 1-34.62.92c-7.77-.54-16.08-1.89-21.72-7.19-6.09-5.69-7.67-14.63-7.85-22.88-.06-2.93 0-5.99 1.49-8.5 11.24-.09 26.5 1.11 37.75 1.02 2.59-.11 5.18.06 7.73.51 1.13.13 2.26.19 3.4.18 5.7.21 17.4.54 29.08 2.81.05.01.1.01.15 0 7.46 1.47 14.89 3.72 20.71 7.31.54.33 1.09.66 1.6 1.02 1.01.7 1.98 1.45 2.92 2.25l.09.09c3.8 3.3 6.21 7.88 6.76 12.84.1.9.18 1.95.25 3.12s.09 2.52.09 3.94v1.62c.15 14.99-1.06 40.23.34 59.88.63 8.68 2.57 18.53 10.04 23.26 3.6 2.3 8.09 3.08 11.43 5.78.42.23.72.63.84 1.09Z" style="fill:url(#linear-gradient-18-designer-2-10);stroke-width:0"/>
    <path d="M288.99 417.12a1.94 1.94 0 0 1-.7 1.38c-6.94 7.24-18.95 6.94-28.33 3.23-1.64-.66-3.33-1.47-4.36-2.88-1.15-1.58-1.3-3.68-1.4-5.66-.73-17.3-.8-34.71-3.91-51.79-1.03-5.75-2.4-11.44-3.12-17.25-1-8.32-.54-16.76-.88-25.15.05-.63-.15-1.25-.55-1.74-.47-.36-1.07-.52-1.66-.45-2.52-.06-5-.09-7.52-.12 0 0 .21-5.21-1.7-7.51s-36.08-12.87-36.08-12.87-2.18-2.85 5.94-4.22c.58-.06 1.21-.15 1.88-.24 5.03-.59 16.2.54 27.17 3.05.05.01.1.01.15 0 7.73 1.8 15.34 4.28 20.71 7.31.54.33 1.09.66 1.6 1.02 1.04.66 2.02 1.41 2.92 2.25l.09.09c.52.52 1 1.08 1.42 1.68 3.02 4.24 4.94 9.14 5.59 14.28.14 1.31.17 2.63.09 3.94-.01.39-.05.78-.12 1.17l.15.45c.15 14.99-1.06 40.23.34 59.88.63 8.68 2.57 18.53 10.04 23.26 3.6 2.3 8.09 3.08 11.43 5.78.42.24.71.65.82 1.11Z" style="fill:url(#linear-gradient-19-designer-2-10);stroke-width:0"/>
    <path class="cls-32_designer-2-10 targetColor" style="fill:#bd93f9" d="M177.17 279.6H381.4v10.67H177.17z"/>
    <path class="cls-32_designer-2-10 targetColor" style="fill:#bd93f9" d="M210.97 288.46h15.15v149.06h-15.15z"/>
    <path style="fill:url(#linear-gradient-20-designer-2-10);stroke-width:0" d="M177.17 279.6h204.28v3.59H177.17z"/>
    <path class="cls-32_designer-2-10 targetColor" style="fill:#bd93f9" d="M228.25 289.73h60.05v10.96h-60.05z"/>
    <path style="fill:url(#linear-gradient-21-designer-2-10);stroke-width:0" d="M228.25 289.73h60.05v5.48h-60.05z"/>
    <path class="cls-31_designer-2-10" d="M217.74 211.1a9.35 9.35 0 0 1-4.39 2.63c-2.67.51-5.26-1.09-7.34-2.82a42.174 42.174 0 0 1-11.82-15.68 49.91 49.91 0 0 0-2.44-5.37c-1.15-1.96-2.74-3.69-3.48-5.83s-.38-7.26 1.68-8.25c.65-.25 1.32-.45 2-.6 2.48-.79 4.31-.58 5.95-2.58 3.67-4.45 8.08-9.03 13.85-9.69 3.84-.43 7.62.98 11.13 2.56s8.38 4.13 10.08 7.75c1.69 3.62.27 8.8-.54 12.39-2.2 9.75-7.31 18.62-14.67 25.47Z"/>
    <path class="cls-29_designer-2-10" d="M215.99 170.32c.09 2.37 2.72 3.77 5.07 4.21 2.35.44 4.97.47 6.78 2 1.41 1.19 2.31 3.24 4.15 3.46.86.05 1.71-.2 2.4-.72 2.75-1.82 3.88-5.43 3.41-8.68-.46-3.25-2.26-6.14-4.35-8.68-7.34-8.82-19.16-14.07-30.67-12.88-11.51 1.18-22.21 9.29-25.68 20.2-1.84 5.8-1.7 12.02-2.94 17.97a39.73 39.73 0 0 1-9.08 18.14c-4.79 5.4-11.32 10.07-12.63 17.12-.8 4.51.75 9.21 3.36 13.02 2.6 3.81 6.14 6.88 9.64 9.91 3.48-5.77 11.08-7.36 16.69-11.16 6.91-4.8 10.65-12.9 9.79-21.2-.58-5.04-.46-5.23 0-10.26.3-3 2.56-4.54 2.22-7.53-.22-1.92-4.51-9.77-5.04-11.64-.88-3.09.04-7.53 4.12-7.52 3.42 0 5.5 4.32 6.46 6.96 3.32-1.18 16.47-8.57 16.31-12.74Z"/>
    <path d="M215.99 170.32c.09 2.37 2.72 3.77 5.07 4.21 2.35.44 4.97.47 6.78 2 1.41 1.19 2.31 3.24 4.15 3.46.86.05 1.71-.2 2.4-.72 2.75-1.82 3.88-5.43 3.41-8.68-.46-3.25-2.26-6.14-4.35-8.68-7.34-8.82-19.16-14.07-30.67-12.88-11.51 1.18-22.21 9.29-25.68 20.2-1.84 5.8-1.7 12.02-2.94 17.97a39.73 39.73 0 0 1-9.08 18.14c-4.79 5.4-11.32 10.07-12.63 17.12-.8 4.51.75 9.21 3.36 13.02 2.6 3.81 6.14 6.88 9.64 9.91 3.48-5.77 11.08-7.36 16.69-11.16 6.91-4.8 10.65-12.9 9.79-21.2-.58-5.04-.46-5.23 0-10.26.3-3 2.56-4.54 2.22-7.53-.22-1.92-4.51-9.77-5.04-11.64-.88-3.09.04-7.53 4.12-7.52 3.42 0 5.5 4.32 6.46 6.96 3.32-1.18 16.47-8.57 16.31-12.74Z" style="fill:url(#linear-gradient-22-designer-2-10);stroke-width:0"/>
    <path class="cls-32_designer-2-10 targetColor" style="fill:#bd93f9" d="M205.85 288.46H221v149.06h-15.15z"/>
    <path style="fill:url(#linear-gradient-23-designer-2-10);stroke-width:0" d="M205.85 288.46H221v149.06h-15.15z"/>
    <path class="cls-32_designer-2-10 targetColor" style="fill:#bd93f9" d="m219.43 271.32-5.12-16.58 1.85-.98 5.69 17.7-2.42-.14z"/>
    <path style="fill:url(#linear-gradient-24-designer-2-10);stroke-width:0" d="m219.43 271.32-5.12-16.58 1.85-.98 5.69 17.7-2.42-.14z"/>
  </g>
</svg>