<svg id="_0006_mobile_testing" xmlns="http://www.w3.org/2000/svg" xmlns:xlink="http://www.w3.org/1999/xlink" viewBox="0 0 500 500" data-imageid="mobile-testing-52" class="illustrations_image" style="width:162px">
  <defs>
    <linearGradient id="linear-gradient-mobile-testing-52" x1="-154.42" y1="1485.36" x2="-90.06" y2="1351.02" gradientTransform="matrix(1 0 0 -1 409 1801.54)" gradientUnits="userSpaceOnUse">
      <stop offset="0" stop-color="#3c3a52" stop-opacity="0"/>
      <stop offset=".86"/>
    </linearGradient>
    <linearGradient id="linear-gradient-2-mobile-testing-52" x1="-165.05" y1="1535.32" x2="-141.31" y2="1414.34" gradientTransform="matrix(1 0 0 -1 409 1801.54)" gradientUnits="userSpaceOnUse">
      <stop offset="0" stop-color="#fff" stop-opacity="0"/>
      <stop offset=".99" stop-color="#fff"/>
    </linearGradient>
    <linearGradient id="linear-gradient-3-mobile-testing-52" x1="-383.17" y1="1575.57" x2="46.23" y2="1575.57" gradientTransform="matrix(1 0 0 -1 409 1880.3)" xlink:href="#linear-gradient-mobile-testing-52"/>
    <linearGradient id="linear-gradient-4-mobile-testing-52" x1="-49.06" y1="1545.37" x2="6.65" y2="1545.37" xlink:href="#linear-gradient-mobile-testing-52"/>
    <linearGradient id="linear-gradient-5-mobile-testing-52" x1="-201.39" y1="1587.04" x2="-214.35" y2="1585.48" gradientTransform="matrix(1 0 0 -1 409 1801.54)" gradientUnits="userSpaceOnUse">
      <stop offset="0" stop-color="#fff" stop-opacity="0"/>
      <stop offset=".33" stop-color="#fff" stop-opacity=".36"/>
      <stop offset=".99" stop-color="#fff"/>
    </linearGradient>
    <linearGradient id="linear-gradient-6-mobile-testing-52" x1="-187.95" y1="1619.74" x2="-142.01" y2="1606.65" gradientTransform="matrix(1 0 0 -1 409 1801.54)" gradientUnits="userSpaceOnUse">
      <stop offset="0" stop-color="#3c3a52" stop-opacity="0"/>
      <stop offset="1"/>
    </linearGradient>
    <linearGradient id="linear-gradient-7-mobile-testing-52" x1="-193.37" y1="1536.04" x2="-192.57" y2="1519.9" xlink:href="#linear-gradient-2-mobile-testing-52"/>
    <linearGradient id="linear-gradient-8-mobile-testing-52" x1="-185.39" y1="1565.04" x2="-185.02" y2="1519.56" xlink:href="#linear-gradient-5-mobile-testing-52"/>
    <linearGradient id="linear-gradient-9-mobile-testing-52" x1="-194.15" y1="1593.89" x2="-120.77" y2="1479.67" xlink:href="#linear-gradient-6-mobile-testing-52"/>
    <linearGradient id="linear-gradient-10-mobile-testing-52" x1="-257.96" y1="1560.94" x2="-183.25" y2="1505.52" xlink:href="#linear-gradient-6-mobile-testing-52"/>
    <linearGradient id="linear-gradient-11-mobile-testing-52" x1="-299.38" y1="1518.35" x2="-196.29" y2="1518.35" xlink:href="#linear-gradient-2-mobile-testing-52"/>
    <linearGradient id="linear-gradient-12-mobile-testing-52" x1="-227.41" y1="1606.15" x2="-250.68" y2="1543.77" gradientTransform="matrix(1 0 0 -1 409 1880.3)" xlink:href="#linear-gradient-mobile-testing-52"/>
    <linearGradient id="linear-gradient-13-mobile-testing-52" x1="-225.59" y1="1570.82" x2="-193.57" y2="1570.82" xlink:href="#linear-gradient-6-mobile-testing-52"/>
    <linearGradient id="linear-gradient-14-mobile-testing-52" x1="-224.7" y1="1577.99" x2="-201.75" y2="1553.91" xlink:href="#linear-gradient-6-mobile-testing-52"/>
    <linearGradient id="linear-gradient-15-mobile-testing-52" x1="-302.26" y1="1564.88" x2="-237.85" y2="1502.89" xlink:href="#linear-gradient-6-mobile-testing-52"/>
    <linearGradient id="linear-gradient-16-mobile-testing-52" x1="-314.85" y1="1516.78" x2="-212.07" y2="1516.78" xlink:href="#linear-gradient-2-mobile-testing-52"/>
    <linearGradient id="linear-gradient-17-mobile-testing-52" x1="-274.96" y1="1563.31" x2="-205.58" y2="1576.04" xlink:href="#linear-gradient-6-mobile-testing-52"/>
    <linearGradient id="linear-gradient-18-mobile-testing-52" x1="-270.16" y1="1494.04" x2="-237.96" y2="1520.23" xlink:href="#linear-gradient-2-mobile-testing-52"/>
    <linearGradient id="linear-gradient-19-mobile-testing-52" x1="-133.26" y1="1560.29" x2="-98.41" y2="1507.35" xlink:href="#linear-gradient-6-mobile-testing-52"/>
    <linearGradient id="linear-gradient-20-mobile-testing-52" x1="-141.75" y1="1530.01" x2="-100.33" y2="1530.01" xlink:href="#linear-gradient-6-mobile-testing-52"/>
    <linearGradient id="linear-gradient-21-mobile-testing-52" x1="-120.3" y1="1539.45" x2="-94.33" y2="1497.7" xlink:href="#linear-gradient-6-mobile-testing-52"/>
    <linearGradient id="linear-gradient-22-mobile-testing-52" x1="-106.13" y1="1580.47" x2="27.7" y2="1528.85" xlink:href="#linear-gradient-2-mobile-testing-52"/>
    <linearGradient id="linear-gradient-23-mobile-testing-52" x1="-128.29" y1="1567.19" x2="-78.42" y2="1560.17" xlink:href="#linear-gradient-6-mobile-testing-52"/>
    <linearGradient id="linear-gradient-24-mobile-testing-52" x1="-136.43" y1="1648.14" x2="-128.91" y2="1648.14" gradientTransform="matrix(1 0 0 -1 409 1880.3)" xlink:href="#linear-gradient-2-mobile-testing-52"/>
    <linearGradient id="linear-gradient-25-mobile-testing-52" x1="-139.47" y1="1647.33" x2="-129.86" y2="1647.33" gradientTransform="matrix(1 0 0 -1 409 1880.3)" xlink:href="#linear-gradient-2-mobile-testing-52"/>
    <linearGradient id="linear-gradient-26-mobile-testing-52" x1="-133.89" y1="1649.65" x2="-123.21" y2="1649.65" gradientTransform="matrix(1 0 0 -1 409 1880.3)" xlink:href="#linear-gradient-2-mobile-testing-52"/>
    <linearGradient id="linear-gradient-27-mobile-testing-52" x1="-151.81" y1="1520.72" x2="-69.13" y2="1520.72" xlink:href="#linear-gradient-6-mobile-testing-52"/>
    <style>
      .cls-21_mobile-testing-52,.cls-30_mobile-testing-52,.cls-31_mobile-testing-52,.cls-35_mobile-testing-52,.cls-36_mobile-testing-52,.cls-37_mobile-testing-52{stroke-width:0}.cls-21_mobile-testing-52{isolation:isolate;opacity:.18}.cls-37_mobile-testing-52{fill:#68e1fd}.cls-21_mobile-testing-52{fill:#1d2741}.cls-30_mobile-testing-52{fill:#231f20}.cls-31_mobile-testing-52{fill:#25233a}.cls-35_mobile-testing-52{fill:#ffaa71}.cls-36_mobile-testing-52{fill:#ffb4a3}
    </style>
  </defs>
  <path class="targetColor" d="M43.66 231.98c13.68-14.48 34.04-21.25 47.61-35.83 18.41-19.79 20.76-49.73 35.39-72.42 10.35-16.01 26.39-27.71 43.82-35.38a136.8 136.8 0 0 1 96.47-4.81c14.62 4.77 28.59 12.05 43.85 13.93 26.48 3.25 56.02-9.7 78.65 4.43 15.52 9.68 21.36 28.91 27.25 46.23 7.89 23.15 19.83 34.83 31.44 68.73 5.39 15.74 23.35 26.55 22.72 43.17-.17 4.58-1.6 9.33-4.98 12.42-2.71 2.48-6.35 3.64-9.86 4.71a1185.58 1185.58 0 0 1-374.97 50.86c-25.05-.64-40.11-4.77-47.24-28.86-6.9-23.33-8.17-48.12 9.84-67.18Z" style="fill:#bd93f9;isolation:isolate;opacity:.18;stroke-width:0" id="background_mobile-testing-52"/>
  <path id="shadow_2_mobile-testing-52" class="cls-21_mobile-testing-52" d="M497.42 293.72c.85-7.99-9.42-12.1-17.46-12.37-16.79-.56-33.3 3.74-49.86 6.51-43.42 7.33-87.93 4.52-131.72 9.04-33.96 3.51-67.28 11.41-100.74 18.21-39.29 7.98-78.84 14.46-118.49 20.39-19.39 2.9-39.01 6.71-58.54 8.38-4.49.38-15.99-1.55-15.41 5.4.53 6.37 8.94 10.67 13.91 12.95 46.05 21.09 97.65 25.46 143.98 45.77 9.95 4.36 21.69 5.49 32.45 6.74 11.9 1.38 23.86 2.05 35.82 2.71 6.24.35 12.47.69 18.62-.34 7.91-1.33 15.24-4.87 22.45-8.38l214.06-104.04c1.35-1.68 3.55-1.68 5.47-2.67 3.41-1.77 5.06-4.46 5.46-8.28Z"/>
  <g id="phone_mobile_mobile-testing-52">
    <path class="cls-37_mobile-testing-52 targetColor" d="M480.72 297.14 194.47 398.96a56.498 56.498 0 0 1-37.46.15L14.16 349.52a9.845 9.845 0 0 1-2.96-1.63 9.187 9.187 0 0 1-3.34-6.06c-.05-.4-.08-.81-.07-1.22a9.286 9.286 0 0 1 7.48-9.29l13.43-2.83L173.42 298l157.68-33.23 65.86 10.94 48.07 8.01 35.7 13.41Z" style="fill:#bd93f9"/>
    <path class="cls-37_mobile-testing-52 targetColor" d="M493.74 276.61c0 9.06-5.7 17.15-14.24 20.19L193.25 398.62a56.498 56.498 0 0 1-37.46.15L12.92 349.16a9.845 9.845 0 0 1-2.96-1.63l-3.32-6.06-.07-.14v-27.2l165.65-16.49 223.51-22.28 87.1-8.67c3.97-.4 7.79 1.61 9.7 5.11" style="fill:#bd93f9"/>
    <path d="M494.35 276.97c0 9.06-5.7 17.15-14.24 20.19L193.86 398.98a56.498 56.498 0 0 1-37.46.15L13.53 349.52a9.845 9.845 0 0 1-2.96-1.63l-3.32-6.06-.07-.14v-27.2L172.83 298l223.51-22.28 87.1-8.67c3.97-.4 7.79 1.61 9.7 5.11" style="stroke-width:0;fill:url(#linear-gradient)"/>
    <path d="M493.73 272.19c-2.14 6.1-6.93 10.9-13.02 13.07L194.46 387.09a56.436 56.436 0 0 1-37.46.14L14.16 337.64a9.845 9.845 0 0 1-2.96-1.63l-3.32-6.06-.07-.14v-15.32L173.46 298l223.5-22.28 87.1-8.67c3.97-.4 7.79 1.61 9.7 5.11" style="fill:url(#linear-gradient-2-mobile-testing-52);stroke-width:0"/>
    <path class="cls-37_mobile-testing-52 targetColor" d="M488.85 267.8 194.5 372.88a56.436 56.436 0 0 1-37.46.14L14.16 323.43c-9.06-3.12-8.23-16.21 1.15-18.2l301.91-66.79c3.78-.84 7.69-.91 11.5-.2l152.41 26.95c1.17.21 8.86 2.2 7.73 2.61" style="fill:#bd93f9"/>
    <path style="fill:url(#linear-gradient-3-mobile-testing-52);stroke-width:0" d="m25.83 302.86 274.7-55.78 154.7 29.34-246.19 85.95-183.21-59.51z"/>
    <path class="cls-31_mobile-testing-52" d="m75.02 325.18 36.97 11.91c.27.09.56.09.83 0l.29-.11c.64-.25.96-.97.71-1.61a1.27 1.27 0 0 0-.78-.74l-37.27-11.79c-.26-.09-.55-.09-.81 0-.64.25-.96.97-.71 1.61.13.35.41.61.76.73Z"/>
  </g>
  <path id="shadow_1_mobile-testing-52" class="cls-21_mobile-testing-52" d="M174.54 319.66c2.84 9.5 13.35 16.03 23.12 14.34 6.55-1.12 12.09-5.28 17.82-8.65a81.73 81.73 0 0 1 46.77-10.97c9.75.69 20.12 3.04 28.9-1.25 6.09-2.97 10.35-8.73 15.98-12.47 4.76-3.18 10.35-4.86 15.5-7.33 8.03-3.85 17.16-13.98 30.07-23.39 7.62-5.56 20.86-10.7 24.37-14.61-7.23-1.96-13.76 6.35-24.37 7.48-22.18 2.31-51.46.89-67 2.89-18.53 2.38-37.07 4.77-55.38 8.49-39.1 7.93-77.25 18.3-116.62 25-7.82 1.33-28.01 2.49-32.88 10.27-7.26 11.63 15.75 17.07 23.18 17.99 5.96.71 72.19-2.26 70.53-7.78Z"/>
  <path class="cls-37_mobile-testing-52 targetColor" d="m360.81 253.68 46.57 8.99c1.2.24 2.45.12 3.59-.34l3.74-1.48c.75-.29 1.12-1.13.84-1.88-.18-.48-.6-.82-1.1-.91l-44.82-8.38a8.076 8.076 0 0 0-4.05.27l-4.88 1.6a1.097 1.097 0 0 0 .12 2.12Z" style="fill:#bd93f9"/>
  <path d="m360.81 253.68 46.57 8.99c1.2.24 2.45.12 3.59-.34l3.74-1.48c.75-.29 1.12-1.13.84-1.88-.18-.48-.6-.82-1.1-.91l-44.82-8.38a8.076 8.076 0 0 0-4.05.27l-4.88 1.6a1.097 1.097 0 0 0 .12 2.12Z" style="fill:url(#linear-gradient-4-mobile-testing-52);stroke-width:0"/>
  <path class="cls-37_mobile-testing-52 targetColor" d="m360.81 251.66 46.57 9c1.2.23 2.45.11 3.59-.34l3.74-1.48c.75-.29 1.12-1.13.84-1.88-.18-.48-.6-.82-1.1-.91l-44.82-8.39a8.305 8.305 0 0 0-4.05.26l-4.9 1.61c-.58.18-.9.8-.72 1.38.12.39.45.68.85.75Z" style="fill:#bd93f9"/>
  <g id="character_2_mobile-testing-52">
    <path class="cls-37_mobile-testing-52 targetColor" d="M193.08 215.98s3.06-17.32 3.85-23c1.45-10.41 5.49-14 9.7-14.57 17.34-2.32 21.93-2.82 40.54-.19 9.16 1.3 11.09 36.61 11.46 46.57a7.88 7.88 0 0 1-1.35 4.68l-6.49 4.63-1.92 16.3-46.9 2.46-.44-18.25-18.53-.42.56-14.13 9.53-4.08Z" style="fill:#bd93f9"/>
    <path d="m201.53 234.62 2.72-39.1s18.55-.55 18.47 2.33c-.08 2.87-13.52 29.35-13.52 29.35l-7.66 7.41Z" style="fill:url(#linear-gradient-5-mobile-testing-52);stroke-width:0"/>
    <path d="M233.55 176.38c1.08-.17 2.19.03 3.16.56 0 0-2.31 10.08-10.89 13.96-8.58 3.89-10.1-9.79-10.1-9.79l17.83-4.73Z" style="fill:url(#linear-gradient-6-mobile-testing-52);stroke-width:0"/>
    <path class="cls-36_mobile-testing-52" d="M178.66 218.72c-.25-.02-.5.02-.73.12-.52.29-.47 1.12-.07 1.57.45.4.96.72 1.52.94.23.1.42.28.51.52.03.17 0 .35-.07.51-.54 1.3-2.1 1.75-3.45 2.14-2.04.59-4.02 1.38-5.91 2.36-.23.09-.42.26-.54.48-.19.56.62.91 1.2.95 1.43.11 2.87.11 4.3 0-.37.26-.8.62-.7 1.09s.54.59.94.62c.4-.02.81.03 1.2.13.62.26.91 1.03 1.48 1.42.57.31 1.24.4 1.87.26 1.21-.14 2.41-.4 3.57-.78a5.1 5.1 0 0 0 1.87-.95 4.94 4.94 0 0 0 1.25-2.31c.59-1.87 1.34-5.61-.29-7.22s-5.81-1.8-7.93-1.85Z"/>
    <path class="cls-31_mobile-testing-52" d="M252.93 251.17s4.4-.24 6.49 3.2 2.09 11.62 2.09 11.62-3.52 4.4-7.43 2.88-2.28-10.1-2.28-10.1l1.12-7.6Z"/>
    <path d="m210.21 281.3 14.11-7.78-.45-14.44s-16.48 6.18-16.75 7.01 3.09 15.21 3.09 15.21Z" style="fill:url(#linear-gradient-7-mobile-testing-52);stroke-width:0"/>
    <path class="cls-37_mobile-testing-52 targetColor" d="M201.25 241.5s-11.89 27.59-8.23 35.47c2.11 4.53 7.41 5.91 11.54 6.24 3.04.26 5.85-1.61 6.78-4.52 2.94-9.24 10.12-27.07 14.02 3.68.62 5.05 17.95 2.62 20.78.15s9.29-17.75 9.29-17.75-1.37-4.77-4.08-6.01c0 0 3.62-13.56-2.07-15.7-.02 0-40.79 11.11-48.04-1.56Z" style="fill:#bd93f9"/>
    <path d="M201.25 241.5s-11.89 27.59-8.23 35.47c2.11 4.53 7.41 5.91 11.54 6.24 3.04.26 5.85-1.61 6.78-4.52 2.94-9.24 10.12-27.07 14.02 3.68.62 5.05 17.95 2.62 20.78.15s9.29-17.75 9.29-17.75-1.37-4.77-4.08-6.01c0 0 3.62-13.56-2.07-15.7-.02 0-40.79 11.11-48.04-1.56Z" style="fill:url(#linear-gradient-8-mobile-testing-52);stroke-width:0"/>
    <path d="M216.56 177.16s-.45 8.81 5.38 10.9c5.82 2.1 13.14-10.9 13.14-10.9s-2.9-.65-3.68-4.33c-3.79-17.72-10.46 3.01-14.84 4.33Z" style="fill:#ea9c8f;stroke-width:0"/>
    <path class="cls-36_mobile-testing-52" d="M206.09 168.59s1.59 16.21 9.98 18.32c8.39 2.11 13.72-13.78 13.72-13.78s5.99-16.43-3.21-16.46-23.34-4.96-20.49 11.92Z"/>
    <path d="m250.79 234.11-14.89 5.09c-1.92.66-4-.36-4.66-2.28a.737.737 0 0 1-.04-.14l-1.93-6.49c-.4-1.36.22-2.82 1.49-3.46l13.52-6.79-2.35-24.52-40.37 39.1.17 6.86s2.17 4.88 13.97 5.61c11.8.74 34.08-4.02 34.08-4.02l1.03-8.96Z" style="fill:url(#linear-gradient-9-mobile-testing-52);stroke-width:0"/>
    <path class="cls-36_mobile-testing-52" d="M230.78 229.63s-3.74-1.55-5.95-.9-4 1.35-4 1.35c.06.45.33.85.72 1.09.47.34-2.88 1.25-5.1 1.76a1.928 1.928 0 0 0-1.43 2.3 4.999 4.999 0 0 0 4.29 3.89c2.27.3 4.57.44 6.86.42 3.12-.2 6.63-4.58 6.63-4.58s-.41-4.75-2.01-5.33Z"/>
    <path class="cls-30_mobile-testing-52" d="M195.8 160.47c.4.34.95.47 1.47.35-1.11-1.93-1.6-4.16-1.41-6.37.53.59 1.51.43 2.17 0s1.15-1.09 1.87-1.47c.59-.29 1.22-.49 1.87-.58 3.27-.67 6.42-1.82 9.35-3.4 1.77-.95 3.48-2.07 5.41-2.67 4.48-1.38 9.6.47 12.65 4.03.56.72 1.15 1.4 1.78 2.06.55.44 1.07.92 1.55 1.43 1.09 1.32 1.15 3.21 1 4.91-.37 4.34-1.67 8.55-3.82 12.34l.22-5.61c.04-.99-.14-2.29-1.12-2.49-.8-.16-1.48.62-1.81 1.35-.51 1.14-.69 2.4-.52 3.63-1.36-.77-2.19-2.19-3.16-3.42s-2.32-2.39-3.88-2.28c-1.74.13-2.92 1.74-4.29 2.83a8.022 8.022 0 0 1-5.71 1.65c-.44-.11-.9-.11-1.34 0-1.16.44-1.2 1.52-2.55 1.43-.79-.04-2.8-1.44-3.54-1.87a16.92 16.92 0 0 1-6.2-5.86Z"/>
  </g>
  <g id="character_1_mobile-testing-52">
    <path class="cls-35_mobile-testing-52" d="m134.52 210.37 9.56-21.43s10.36-4.99 17.52-.68c7.17 4.31 1.1 18.81 0 23.4-1.1 4.58-8.16 6.37-10.85 4.28s-6.21 4.11-6.21 4.11l-10.03-9.67Z"/>
    <path class="cls-37_mobile-testing-52 targetColor" d="m144.54 220.04 13.92 22.53s4.47 8.05 9.73 6.96c5.26-1.09 10.19-7.68 10.19-7.68l6.99 7.18s-11.01 18.58-23.03 16.96c-6.69-.9-21.04-14.82-21.04-14.82l3.23-31.13Z" style="fill:#bd93f9"/>
    <path d="m144.54 220.04 13.92 22.53s4.47 8.05 9.73 6.96c5.26-1.09 10.19-7.68 10.19-7.68l6.99 7.18s-11.01 18.58-23.03 16.96c-6.69-.9-21.04-14.82-21.04-14.82l3.23-31.13Z" style="fill:url(#linear-gradient-10-mobile-testing-52);stroke-width:0"/>
    <path class="cls-37_mobile-testing-52 targetColor" d="M139.79 265.99s51.67 14.22 61.23 18.78c9.56 4.56 11.68 4.99 11.68 4.99l-3.67 10.65-99.42-10.23L139.78 266Z" style="fill:#bd93f9"/>
    <path d="M139.79 265.99s51.67 14.22 61.23 18.78c9.56 4.56 11.68 4.99 11.68 4.99l-3.67 10.65-99.42-10.23L139.78 266Z" style="fill:url(#linear-gradient-11-mobile-testing-52);stroke-width:0"/>
    <path style="fill:url(#linear-gradient-12-mobile-testing-52);stroke-width:0" d="m210.48 296.18-19.38-4.88-10.52-13.53-42.61 13.53 1.89 2.84 69.18 6.23 1.44-4.19z"/>
    <path class="cls-37_mobile-testing-52 targetColor" d="M192.78 210.28s1.15-1.81 4.29-1.63c3.14.17 8.9 1.68 8.9 1.68l-19.96 42.48h-9.71c-1.3 0-2.35-1.05-2.35-2.35 0-.35.08-.69.23-1l18.6-39.18Z" style="fill:#bd93f9"/>
    <path d="M192.78 210.28s1.15-1.81 4.29-1.63c3.14.17 8.9 1.68 8.9 1.68l-19.96 42.48h-9.71c-1.3 0-2.35-1.05-2.35-2.35 0-.35.08-.69.23-1l18.6-39.18Z" style="fill:url(#linear-gradient-13-mobile-testing-52);stroke-width:0"/>
    <path class="cls-37_mobile-testing-52 targetColor" d="M194.87 210.28s1.16-1.81 4.3-1.63c2.1.2 4.19.55 6.24 1.05a2.19 2.19 0 0 1 1.65 2.61c-.04.16-.09.31-.16.45l-17.99 38.37a2.923 2.923 0 0 1-2.65 1.68h-7.86c-1.3 0-2.35-1.05-2.35-2.34 0-.35.08-.7.23-1.01l18.6-39.18Z" style="fill:#bd93f9"/>
    <path d="M194.87 210.28s1.16-1.81 4.3-1.63c2.1.2 4.19.55 6.24 1.05a2.19 2.19 0 0 1 1.65 2.61c-.04.16-.09.31-.16.45l-17.99 38.37a2.923 2.923 0 0 1-2.65 1.68h-7.86c-1.3 0-2.35-1.05-2.35-2.34 0-.35.08-.7.23-1.01l18.6-39.18Z" style="fill:url(#linear-gradient-14-mobile-testing-52);stroke-width:0"/>
    <path class="cls-37_mobile-testing-52 targetColor" d="M95.68 289.87s-8.83-26.27 15.59-58.68c9.2-12.22 16.56-18.39 22.16-21.33 6.13-3.22 13.38 1.78 12.67 8.67-1.65 15.82-4.75 45.7-4.75 45.94s-36.95 30.47-45.67 25.41Z" style="fill:#bd93f9"/>
    <path d="M124.59 227.2s-19.3 32.37-14.87 53.63c0 0 33.43-13.2 31.61-16.4s-1.5-37.26-1.5-37.26l-15.23.02Z" style="fill:url(#linear-gradient-15-mobile-testing-52);stroke-width:0"/>
    <path class="cls-37_mobile-testing-52 targetColor" d="M196.93 304.9c-3.14 1.62-6.5 2.76-9.98 3.4-1.08.2-2.16.35-3.25.45a202.254 202.254 0 0 1-23.93-21.57c-15.48 10.9-33.58 20.45-52.38 18.33-2.33-.16-4.6-.81-6.67-1.91-1.36-.87-2.56-1.96-3.55-3.22-1.6-1.98-2.87-4.37-3.01-6.42-.29-4.37 3.36-5.81 6.94-7.78a327.708 327.708 0 0 1 53.79-23.57c4.09-1.37 8.61-2.66 12.64-1.12s6.52 5.46 8.73 9.14l20.67 34.28Z" style="fill:#bd93f9"/>
    <path d="M196.93 304.9c-3.14 1.62-6.5 2.76-9.98 3.4-1.08.2-2.16.35-3.25.45a202.254 202.254 0 0 1-23.93-21.57c-15.48 10.9-33.58 20.45-52.38 18.33-2.33-.16-4.6-.81-6.67-1.91-1.36-.87-2.56-1.96-3.55-3.22-1.6-1.98-2.87-4.37-3.01-6.42-.29-4.37 3.36-5.81 6.94-7.78a327.708 327.708 0 0 1 53.79-23.57c4.09-1.37 8.61-2.66 12.64-1.12s6.52 5.46 8.73 9.14l20.67 34.28Z" style="fill:url(#linear-gradient-16-mobile-testing-52);stroke-width:0"/>
    <path class="cls-37_mobile-testing-52 targetColor" d="M124.59 227.2s9.93 30 14.92 34.06c4.99 4.07 33.05-21.71 33.05-21.71v-9.98L148.58 240s-1.28-24.95-3.67-26.49-17.32-3.27-20.31 13.68Z" style="fill:#bd93f9"/>
    <path d="M124.59 227.2s9.93 30 14.92 34.06c4.99 4.07 33.05-21.71 33.05-21.71v-9.98L148.58 240s-1.28-24.95-3.67-26.49-17.32-3.27-20.31 13.68Z" style="fill:url(#linear-gradient-17-mobile-testing-52);stroke-width:0"/>
    <path class="cls-35_mobile-testing-52" d="M175.5 227.58c.9-.33 1.84-.54 2.79-.62 2.05-.26 2.86-.8 4.93-.73 2.28 0 .57 1.64-.09 1.87-.68.17-1.32.46-1.9.85-.97.82-.86 2.29-1.01 3.55a7.152 7.152 0 0 1-7.7 6.27c-.5.01-.98-.2-1.31-.58-.17-.3-.25-.65-.23-.99-.08-1.73-.72-4.31.2-5.86.63-1.09 2.94-3.77 4.32-3.77Z"/>
    <path class="cls-30_mobile-testing-52" d="M138.2 184.52a6.672 6.672 0 0 0-2.49 4.11c-.29 1.61-.44 3.25-.46 4.88-.15 2.39-.51 4.76-1.09 7.08.17-.15.4-.23.62-.21.09.65.12 1.31.09 1.96l1.03-.17c0 1.61-.06 3.22-.19 4.83 2.56-1.32 4.5-3.57 6.38-5.76.11-.12.21-.26.28-.41.07-.24.09-.5.04-.75-.19-1.15 0-2.33.56-3.36.62-.97 1.98-1.55 2.98-.98 1.28.73 1.17 2.56 1.54 3.98.63-1.26 1.08-2.6 1.35-3.98.06-.52.22-1.02.47-1.47.29-.36.66-.65 1.08-.85 2.48-1.32 5.35-1.73 8.11-1.14 1.53.34 3.07.98 4.61.69.34-.11.7-.14 1.05-.09.62.15 1.09.92 1.71.77.34-.14.59-.41.71-.75a8.89 8.89 0 0 0-.85-8.86c1.04.27 2.11.43 3.19.47-4.33-6.01-12.13-9.4-19.43-8.15-1.63.21-3.17.82-4.5 1.78a6.902 6.902 0 0 0-2.49 4.81c-.14 1.35-.38.95-1.54.84-.98-.09-1.96.16-2.78.72Z"/>
    <path d="M143.96 198.3c0 .44.11.88.14 1.32.04.78-.16 1.65.28 2.29.28.34.65.61 1.06.77.12.08.26.11.41.1.18-.06.32-.22.36-.41.18-.61.18-1.26 0-1.87-.17-.59-.29-1.19-.37-1.8-.04-.44.07-1.09-.24-1.47-.74-.89-1.64.27-1.63 1.05Z" style="fill:#ea9963;stroke-width:0"/>
    <path class="cls-35_mobile-testing-52" d="M196.26 227.63c-.43-.48-1.09-.99-1.64-.67s-.41 1.25-.15 1.87.58 1.4.87 2.1c-.31-.57-.71-1.1-1.18-1.55a.971.971 0 0 0-.54-.32c-.34 0-.62.25-.69.59-.05.33-.01.66.09.97l.71 2.74c-.4-.59-.93-1.07-1.55-1.41a.608.608 0 0 0-.62-.08c-.24.15-.22.51-.16.79.3 1.32.74 2.61 1.33 3.83-.34-.36-.84-.74-1.25-.51s-.32 1.02-.09 1.53l1.37 2.99c.1.33.33.62.62.8.62.24 1.18-.41 1.51-.98 1.05-1.85 1.96-3.77 2.73-5.74.44-1.11 1.02-2.56.72-3.74s-1.31-2.33-2.08-3.21ZM209.67 298.56h5l2.59-7.26-4.55-1.58-3.04 8.84z"/>
    <path class="cls-31_mobile-testing-52" d="M224.83 278.07c.51-.82 1.17-1.52 1.96-2.08.81-.55 1.86-.59 2.71-.11.67.56 1.08 1.36 1.15 2.23.38 2.39-.12 4.82-.65 7.18-1.14 5.04-2.44 10.05-3.89 15.01a1.31 1.31 0 0 1-1.41 1.2c-.1 0-.19-.03-.28-.06-2.92-.18-5.8-.74-8.57-1.67-.41-.09-.78-.32-1.04-.65-.2-.52-.16-1.11.11-1.6 2.7-6.92 5.57-13.36 9.93-19.46Z"/>
    <path class="cls-35_mobile-testing-52" d="m187.71 308.15 3.87 3.42 7.65-2.82-2.31-3.85-9.21 3.25z"/>
    <path class="cls-31_mobile-testing-52" d="m191.58 311.57 4.22 8.43 22.28-6.34s1.17-3.85-4.02-4.25-14.84-.63-14.84-.63l-7.65 2.79Z"/>
    <path d="m189.95 306.95-2.99 1.35c-1.08.2-2.16.35-3.25.45a202.254 202.254 0 0 1-23.93-21.57c-15.48 10.9-33.58 20.45-52.38 18.33-2.33-.16-4.6-.81-6.67-1.91-1.36-.87-2.56-1.96-3.55-3.22 3.89 2.29 10.35 0 10.35 0s50.68-26.19 53.63-26.7 28.79 33.29 28.79 33.29Z" style="fill:url(#linear-gradient-18-mobile-testing-52);stroke-width:0"/>
  </g>
  <g id="character_3_mobile-testing-52">
    <path class="cls-30_mobile-testing-52" d="M308.93 183.53c.46-1.53 1.61-2.77 2.11-4.28.41-1.25.36-2.59.69-3.86a8.09 8.09 0 0 1 3.8-4.76c1.83-1.01 3.87-1.59 5.96-1.7 4.46-.36 8.91.81 12.63 3.31 3.7 2.53 6.29 6.39 7.22 10.78.18 1.39.47 2.76.85 4.1.48 1.31 1.45 2.55 2.8 2.89l-.13 1.56c2.52.51 4.48 2.47 4.99 4.99.39 2.08-.3 4.3.36 6.3.62 1.87 2.26 3.28 2.49 5.2a7.2 7.2 0 0 1-.69 3.44c-.97 2.52-2.02 5-3.16 7.45-1.74-1.87-3.55-3.74-5.9-4.75-1.41-.62-2.94-.84-4.37-1.33-7.73-2.64-11.37-11.81-18.62-15.59-1.63-.85-3.7-1.14-5.24-2.1-1.15-.73-1.18-1.73-1.87-2.8-1.86-2.87-5.13-4.86-3.94-8.84Z"/>
    <path class="cls-30_mobile-testing-52" d="M313.33 201.36c.45 2.09 1.94 3.79 3.5 5.25.81.75 1.7 1.53 1.97 2.61.05.36.15.7.31 1.02.44.62 1.43.54 2.14.2 1.7-.88 2.91-2.49 3.28-4.37a9.3 9.3 0 0 0-.62-5.51 12.232 12.232 0 0 0-7.29-6.9c-3.83-1.14-3.79 5.35-3.29 7.69Z"/>
    <path class="cls-35_mobile-testing-52" d="M315.66 212.49s-12.84 15.22-17.56 20.21c-6.4 6.78-24.42 0-24.42 0l7.32 14.9 7.23 1 25.18-18.09 2.25-18.04Z"/>
    <path class="cls-37_mobile-testing-52 targetColor" style="fill:#bd93f9" d="m270.18 228.57-.65-1.76h3.04v-1.27h2.54v-1.23l4.29 1.33 6.39 1.54 1.69-.74 19.96 4.78-.3 1.17-20.31 8.67-8.68-1.43-7.97-11.06z"/>
    <path class="cls-31_mobile-testing-52" d="M258.28 289.32s-8.36.3-9.9 2.39 1.57 3.82 1.57 3.82l16.71-6.81-8.37.59Z"/>
    <path class="cls-37_mobile-testing-52 targetColor" d="M331.12 269.19s-9.41 6.69-23.98 3.04-21.87-6.24-21.87-6.24l-16 19.58-.08.09-1.94-.74-6.28-2.39s6.97-25.17 11.1-29.65c1.25-1.34 5.97-7.25 13.38-5.33 8.58 2.22 25.69 4.7 37.47 7.31 10.53 2.33 8.19 14.33 8.19 14.33Z" style="fill:#bd93f9"/>
    <path d="M331.12 269.19s-9.41 6.69-23.98 3.04-21.87-6.24-21.87-6.24l-16 19.58-.08.09-1.94-.74-6.28-2.39s6.97-25.17 11.1-29.65c1.25-1.34 5.97-7.25 13.38-5.33 8.58 2.22 25.69 4.7 37.47 7.31 10.53 2.33 8.19 14.33 8.19 14.33Z" style="fill:url(#linear-gradient-19-mobile-testing-52);stroke-width:0"/>
    <path class="cls-35_mobile-testing-52" d="m261.61 282.77-1.92 6.23 7.56-4.09-5.64-2.14z"/>
    <path d="m308.67 262.43-1.53 9.8c-14.57-3.65-21.87-6.24-21.87-6.24l-16 19.58-2.02-.62 16.42-27.44 25 4.93Z" style="fill:url(#linear-gradient-20-mobile-testing-52);stroke-width:0"/>
    <path class="cls-37_mobile-testing-52 targetColor" d="m322.93 254.85-71.21 38.45s4.47 3.56 5.46 5.26 5.52 2.9 5.52 2.9 42.21-13.1 46.62-16.99c0 0 10.6-1.25 15.59-2.09s10.55-6.04 13.34-13.2c2.79-7.15 1.64-15.43 1.64-15.43l-16.94 1.1h-.02Z" style="fill:#bd93f9"/>
    <path d="m322.93 254.85-71.21 38.45s4.47 3.56 5.46 5.26 5.52 2.9 5.52 2.9 42.21-13.1 46.62-16.99c0 0 10.6-1.25 15.59-2.09s10.55-6.04 13.34-13.2c2.79-7.15 1.64-15.43 1.64-15.43l-16.94 1.1h-.02Z" style="fill:url(#linear-gradient-21-mobile-testing-52);stroke-width:0"/>
    <path class="cls-35_mobile-testing-52" d="m252.75 294.14-5.72 2.83 7.06 6.98 6.35-3.25-7.69-6.56z"/>
    <path class="cls-31_mobile-testing-52" d="M248.35 296.97s-7.89-10.75-10.48-9.7c-2.59 1.05-3.39 5.61-3.19 6.24.15.45 7.06 10.08 10.48 14.82 1.05 1.47 3.06 1.86 4.6.91l3.69-2.28 1.65-3.51-6.75-6.48Z"/>
    <path class="cls-37_mobile-testing-52 targetColor" d="m318.13 256.4-8.38-4.17s10.5-10.73 3.41-19.52c0 0-4.64-3.63-3.82-7.91.52-2.71 3.92-8.46 6.34-12.31 1.51-2.41 3.96-4.09 6.76-4.62l14.76-2.83s6.01.73 8.39 8.3c2.39 7.57-5.73 40.41-5.73 40.41l-21.73 2.64Z" style="fill:#bd93f9"/>
    <path d="m318.13 256.4-8.38-4.17s10.5-10.73 3.41-19.52c0 0-4.64-3.63-3.82-7.91.52-2.71 3.92-8.46 6.34-12.31 1.51-2.41 3.96-4.09 6.76-4.62l14.76-2.83s6.01.73 8.39 8.3c2.39 7.57-5.73 40.41-5.73 40.41l-21.73 2.64Z" style="fill:url(#linear-gradient-22-mobile-testing-52);stroke-width:0"/>
    <path class="cls-35_mobile-testing-52" d="M337.23 205.06s-10.93 11.79-14.79 9.48a3.111 3.111 0 0 1-1.72-2.72c0-1.98 1.72-3.94 1.72-3.94s2.83-5.7-2.1-4.88h-.09c-5.05.89-6.75-11.36-4.66-19.03s15.38-1.73 15.75.91 5.88 20.18 5.88 20.18Z"/>
    <path class="cls-30_mobile-testing-52" d="M319.44 178c1.44.53 2.19 2.06 2.99 3.37 2.03 3.34 5.07 5.94 8.69 7.41 1.63.66 3.52 1.07 5.1.28-.97-1.76-1.58-3.68-1.81-5.68-.06-1.15-.19-2.3-.41-3.44-.85-3.34-4-5.56-7.16-6.92-1.75-.82-3.64-1.27-5.58-1.32-1.95-.04-3.82.78-5.13 2.23a6.9 6.9 0 0 0-1.38 3.24c-.21 1.25-.56 4.05.92 2.78 1.23-1.07 1.58-2.78 3.78-1.97Z"/>
    <path class="cls-30_mobile-testing-52" d="M329.82 192.78c.57-.7 1.18-1.37 1.81-2.01.24-.24.58-.5.88-.34.12.08.21.19.27.32a3.171 3.171 0 0 1-2.12 4.55c1.42.26-2.21 6.98 3.55 11.44 5.39 4.16 8.57.47 9.67.55.17-2.63-6.94-12.92-7.04-15.55.03-.82-.14-1.63-.5-2.36-.72-1.25-3.24-2.83-4.61-1.75-1.22.94-1.5 3.77-1.91 5.14Z"/>
    <path class="cls-35_mobile-testing-52" d="M345.72 211.25a4.14 4.14 0 0 0-5.65-1.53c-.58.34-1.08.81-1.44 1.38a9.396 9.396 0 0 0-1.43 7.51c1.62 6.59 15.59 21.31 15.59 21.31l10.6 19.16s-2.62 6.45 1.56 1.45c2.06-2.46 6.95-2.86 9.64-2.87 1.31 0 2.4-1.01 2.49-2.32 0-.37-.07-.62-.36-.62-.97.1-6.77-.58-6.77-.58l-5.18 1.21s-6.81-19.01-7.13-19.36-6.5-15.37-11.91-24.73Z"/>
    <path class="cls-37_mobile-testing-52 targetColor" d="m269.53 228.57 8.99 12.47 12.31 1.51s9.79-5.98 11.77-7c1.98-1.02 6.07-2.86 6.07-2.86l-19.57-4.14-9.02 10.22-1.94.85-7.97-11.06-.64.02Z" style="fill:#bd93f9"/>
    <path d="m269.53 228.57 8.99 12.47 12.31 1.51s9.79-5.98 11.77-7c1.98-1.02 6.07-2.86 6.07-2.86l-19.57-4.14-9.02 10.22-1.94.85-7.97-11.06-.64.02Z" style="fill:url(#linear-gradient-23-mobile-testing-52);stroke-width:0"/>
    <path class="cls-37_mobile-testing-52 targetColor" style="fill:#bd93f9" d="m272.57 225.54 6.27 12.15.4.89.85.2-4.98-13.24h-2.54zM269.53 226.81l9 12.32h.61l-6.57-12.32h-3.04zM275.11 224.31l4.98 12.68 5.7-9.81-10.68-2.87z"/>
    <path style="fill:url(#linear-gradient-24-mobile-testing-52);stroke-width:0" d="m272.57 225.54 6.27 12.15.4.89.85.2-4.98-13.24h-2.54z"/>
    <path style="fill:url(#linear-gradient-25-mobile-testing-52);stroke-width:0" d="m269.53 226.81 9 12.32h.61l-6.57-12.32h-3.04z"/>
    <path style="fill:url(#linear-gradient-26-mobile-testing-52);stroke-width:0" d="m275.11 224.31 4.98 12.68 5.7-9.81-10.68-2.87z"/>
    <path d="M257.19 298.56s36.64-13.1 51.52-19.52c2.83-1.23 5.79-2.12 8.82-2.65 3.66-.62 8.84-1.87 12.29-4.22 5.82-3.97 10.05-12 10.05-12s.16 18.05-14.97 22.2l-15.59 2.09s-5.44 3.17-15.35 6.62-31.28 10.38-31.28 10.38-4.23-1.39-4.52-1.69-.99-1.21-.99-1.21Z" style="fill:url(#linear-gradient-27-mobile-testing-52);stroke-width:0"/>
    <path d="M320.72 211.82c0-1.98 1.72-3.94 1.72-3.94s2.83-5.7-2.1-4.88c8.01-1.32 7.04-6.58 8.93-1.8 3.17 8.02-8.18 10.56-8.56 10.61Z" style="fill:#d88248;stroke-width:0"/>
  </g>
</svg>